<svg xmlns="http://www.w3.org/2000/svg" width="800" height="800" version="1.0" viewBox="0 0 600 600"><path d="M165.8 24.9c-13.8 4.5-26.4 15.5-33.4 29.3-6.8 13.6-6.4-6.3-6.4 266.3 0 242.1 0 247.1 1.9 250.2 1.1 1.7 2.9 3.4 4 3.8 1.2.3 2.1 1.1 2.1 1.6 0 1.3 6.8 1.1 8.7-.4.9-.6 36.7-36.1 79.5-78.7l77.8-77.5 77.8 77.5c42.8 42.6 78.6 78.1 79.5 78.8 1.9 1.4 8.7 1.6 8.7.3 0-.5.9-1.3 2.1-1.6 1.1-.4 2.9-2.1 4-3.8 1.9-3.1 1.9-8.1 1.9-251.3 0-273.3.5-251-6.1-264.8-5-10.4-13.5-19.2-24.9-25.8-10.5-6.1-3.3-5.8-143.4-5.7-120.8 0-128.4.1-133.8 1.8zM274 133.2c9.1 5.3 16.4 9.9 16.4 10.4-.1.4-7.5 5.1-16.5 10.3-15.8 9.3-16.6 9.6-22.4 9.6-5.7-.1-6.7-.5-22.2-9.5-9-5.2-16.3-10-16.3-10.5 0-.9 13.7-9.2 29.4-17.8 8.5-4.7 12-3.9 31.6 7.5zm99-.1c8.9 5.2 16.2 9.9 16.2 10.4.1.5-7.3 5.2-16.3 10.4-22.7 13.1-21.3 13.1-43.6.4-9.5-5.4-17.3-10.3-17.3-10.8 0-.9 5.2-4 26.9-16.3 11.4-6.4 13.5-6.1 34.1 5.9zm-49.7 28.6c9.2 5.3 16.6 10 16.4 10.6-.1.5-7.7 5.2-16.7 10.5-22.3 12.9-20.9 12.9-43.8-.2-9.5-5.4-17.2-10.1-17.2-10.5 0-.8 32.9-19.7 35.5-20.4 4.5-1.2 9.8.9 25.8 10zm72.7 9.1c-.1 20.2-.7 24.2-4.7 28.4-3 3.1-32.6 20.8-34.9 20.8-1.1 0-1.4-3.4-1.4-17.8.1-20.8.7-24.4 5.2-28.8 3.6-3.6 33.9-21.5 35.1-20.7.4.2.7 8.4.7 18.1zm-173.7-10.2c26 15 24.6 12.8 24.7 40.1 0 13.7-.3 19.3-1.1 19.3-1.4 0-28.1-15.3-32.7-18.7-5.8-4.3-6.2-6.1-6.2-28.3 0-13.6.3-20 1.1-20 .6 0 7 3.4 14.2 7.6zm58 33.6c16.3 9.6 15.7 8.3 15.7 34 0 11.5-.3 20.8-.6 20.8-1.4 0-32.2-18.4-34.5-20.6-1.4-1.4-3.1-4.2-3.8-6.3-1.2-4.1-1.6-39.3-.4-40.4.7-.7 4.8 1.4 23.6 12.5zm65.7 6.3c0 21.3-.5 24-5.6 28.6-2.7 2.5-32.3 19.9-33.7 19.9-.4 0-.7-9-.7-20 0-21.4.3-23.2 5.2-27.7 2.3-2.2 32.6-20.2 34.1-20.3.4 0 .7 8.8.7 19.5zm-122.2 18.2c9.4 5.4 17 10.2 16.9 10.8-.2.5-7.7 5.3-16.8 10.5-22.3 12.9-21.5 12.9-43.8 0-9.1-5.2-16.6-10-16.7-10.5-.2-.6 7.4-5.4 16.8-10.8 14.9-8.4 17.8-9.7 21.8-9.7s6.9 1.3 21.8 9.7zm198.9.4c9 5.2 16.3 9.8 16.3 10.4 0 .5-7.8 5.4-17.3 10.8-22.2 12.7-20.8 12.7-43.4-.4-9-5.2-16.4-9.8-16.4-10.4-.2-.9 14.2-9.7 28.1-17.2 10-5.4 12.7-4.8 32.7 6.8zm-166.6 19.1c3.6 1.2 31.6 17.2 33.6 19.1.9.9-2.6 3.4-15.5 10.8-9.2 5.3-18.2 10-19.9 10.4-1.9.4-4.9.1-6.9-.5-4.5-1.5-33.7-18.4-34.2-19.8-.3-1.1 27.9-17.8 33.7-19.8 4.5-1.6 5.1-1.7 9.2-.2zm117.1 9.6c9.3 5.3 16.8 9.9 16.8 10.3 0 1.1-33.6 19.9-36.7 20.5-1.7.3-4.7.1-6.7-.6-4.5-1.5-34.6-18.9-34.6-20 0-.8 27.2-16.8 33.1-19.5 5.8-2.6 10.1-1.1 28.1 9.3zm-198.8-.2c8.3 4.8 16.2 9.6 17.5 10.8 4.5 4 5.1 7.2 5.1 28.1 0 10.7-.3 19.5-.6 19.5-1.8 0-32.4-18.4-34.8-20.9-1.5-1.6-3.2-4.6-3.7-6.7-1.4-6-1.2-39.4.3-39.4.6 0 7.9 3.9 16.2 8.6zM445 258c0 20.9-.9 25.4-5.9 28.9-4.2 3-32.2 19.1-33.2 19.1-.5 0-.9-8.3-.9-19.3 0-21.3 1-25.7 6.6-29.4 6.9-4.5 31-18.2 32.2-18.2.9-.1 1.2 4.3 1.2 18.9zm-220.7 18.5c9 5.2 17.2 10.4 18.1 11.4 3.7 4.1 4.5 9 4.6 27.8 0 10-.4 18.4-.8 18.7-.9.6-30.7-16.6-34.1-19.7-4.5-4.2-5.1-7.3-5.1-28.2 0-10.7.2-19.5.4-19.5.3 0 7.8 4.3 16.9 9.5zm71.7 11.4c0 20-.1 20.9-2.3 24.2-1.6 2.4-7.1 6.2-19.1 13.1-9.2 5.4-17.2 9.8-17.7 9.8s-.9-8.2-.9-19.3c.1-27.3-.9-25.6 24-40.1 8-4.7 14.8-8.5 15.3-8.5.4-.1.7 9.3.7 20.8zm26.2-12.2c8.3 4.7 16.4 9.8 18.1 11.2 5.1 4.3 5.7 7.1 5.7 28.6 0 10.7-.3 19.5-.6 19.5-.8 0-31.2-17.5-33.5-19.3-.9-.7-2.6-2.8-3.8-4.7-1.9-3.3-2.1-4.9-2.1-23.8 0-11.1.3-20.2.6-20.2.4 0 7.4 3.9 15.6 8.7zm70.5 36.2c-1.8 2.7-6.7 6.1-19.3 13.4l-16.9 9.7-.3-20.6c-.3-26.5-1.5-24.4 21.4-37.6l16.9-9.8.3 20.7c.2 20.3.2 20.7-2.1 24.2zm1.2 55.2c-.6 1.5-2 3.6-3.2 4.7-2.1 2-33 20.2-34.2 20.2-.3 0-.5-9.7-.3-21.5l.3-21.5 3.5-3.4c1.9-1.9 10.5-7.5 19-12.4l15.5-9 .3 20.2c.1 13-.1 21-.9 22.7zM224.8 334c16.9 9.8 19.6 12 21.1 17.8 1.3 4.4 1.5 40.2.3 40.2-1 0-29.3-16.2-33.3-19.1-5.2-3.7-5.9-6.9-5.9-28.3 0-13 .4-19.6 1.1-19.6.5 0 8.1 4.1 16.7 9zm71.2 10.5c0 20.4-.6 24.2-4.6 27.6-4.4 3.9-33.7 20-34.7 19-.5-.5-.8-8.7-.6-20.3.5-23.8.5-23.9 14.1-31.9 5-3 12.4-7.3 16.2-9.6 3.9-2.2 7.7-4.2 8.4-4.2.9-.1 1.2 4.4 1.2 19.4zm26.3-11.4c24.8 14.2 23.6 12.4 23.7 39.6 0 10.6-.4 19.3-.8 19.3s-8.4-4.4-17.7-9.8c-22.3-13-21.5-11.5-21.5-37.9 0-12.7.4-19.3 1-19.3s7.5 3.7 15.3 8.1z"/></svg>