<svg xmlns="http://www.w3.org/2000/svg" width="512" height="512"><g fill="none" fill-rule="evenodd"><path fill="#FFF" d="m288.5 18.764 156.703 90.472a65 65 0 0 1 32.5 56.292v180.944a65 65 0 0 1-32.5 56.292L288.5 493.236a65 65 0 0 1-65 0L66.797 402.764a65 65 0 0 1-32.5-56.292V165.528a65 65 0 0 1 32.5-56.292L223.5 18.764a65 65 0 0 1 65 0Z"/><g fill="#000" fill-rule="nonzero"><path d="M67 255.896 112.196 123H168l-49.309 132.499 37.042 133.478-49.397.023zM445 255.496 399.804 389H344l49.309-133.504-37.042-132.473 49.397-.023z"/><path d="M225.486 123h61.977L377 388.942h-56.088l-64.425-209.355-36.177 114.517h55.681l15.296 49.842h-84.565L192.088 389H136z"/></g></g></svg>