<svg xmlns="http://www.w3.org/2000/svg" width="48" height="48"><path d="M34.226 35.502h-.043l.02-16.31v-1.756c0-2.73-.442-4.682-1.325-5.857-1.23-1.631-3.574-2.446-7.032-2.446h-9.578c-1.653 0-3.13.5-4.547 1.479-1.731 1.25-2.667 2.892-2.667 5.054v.378l5.036 3.646h2.232v-1.574c0-1.966 1.59-2.456 3.188-2.456h4.709c1.767.001 2.65.874 2.65 2.617l.04 3.875-9.894.063c-5.3.038-8.015 2.54-8.015 7.507v4.77C9 39.505 11.657 42 16.843 42h7.217c2.974 0 5.335-2.254 5.335-3.035v2.96h4.83v-6.423h.001zm-15.18-6.698h7.825l-.004 3.086c0 2.305-.866 3.406-2.578 3.555H19.06c-.725 0-1.605-.158-2.084-.635a2.34 2.34 0 0 1-.721-1.735v-1.828a2.34 2.34 0 0 1 .721-1.732c.48-.473 1.34-.71 2.07-.71v-.001z"/><path fill="#FF8C00" d="M41.006 8.713c.006 1.505-1.243 2.729-2.788 2.734-1.546.006-2.803-1.209-2.809-2.713C35.404 7.23 36.652 6.006 38.198 6c1.545-.006 2.802 1.21 2.808 2.713z"/></svg>