<svg width="152" height="152" xmlns="http://www.w3.org/2000/svg"><g stroke="null" fill-rule="evenodd"><path d="M94.033 1.569c-.2.862-.568 2.084-.818 2.715-.428 1.074-.798 2.133-2.493 7.114a479.303 479.303 0 01-1.431 4.131 291.7 291.7 0 00-1.24 3.596 92.5 92.5 0 01-1.07 2.983c-.322.842-.699 1.944-.838 2.448-.14.505-.454 1.435-.7 2.066-.419 1.081-.885 2.416-2.293 6.579a496.33 496.33 0 01-1.455 4.207 350.079 350.079 0 00-1.32 3.826 95.605 95.605 0 01-1.04 2.907c-.32.841-.669 1.874-.778 2.295-.109.42-.457 1.419-.774 2.218-.317.8-.684 1.873-.816 2.387a13.708 13.708 0 01-.606 1.763c-.202.456-.583 1.527-.846 2.38s-.647 1.93-.852 2.394a14.147 14.147 0 00-.622 1.812c-.137.532-.512 1.657-.834 2.499-.548 1.432-.883 2.4-2.014 5.813a78.28 78.28 0 01-1.045 2.908c-.325.841-.7 1.956-.834 2.476s-.472 1.485-.752 2.142c-.28.658-.621 1.65-.76 2.205a14.636 14.636 0 01-.712 2.038 15.067 15.067 0 00-.705 1.975c-.134.52-.508 1.633-.832 2.475a53.72 53.72 0 00-.969 2.754 53.672 53.672 0 01-.84 2.448 73.82 73.82 0 00-.837 2.371c-.207.631-.55 1.63-.76 2.219-.212.589-.572 1.621-.802 2.295-.23.673-.779 2.256-1.22 3.519a409.327 409.327 0 00-1.214 3.519 106.06 106.06 0 01-.954 2.677c-.299.8-.645 1.832-.77 2.295-.124.463-.491 1.53-.815 2.372-.324.841-.793 2.15-1.04 2.907a226.14 226.14 0 01-1.32 3.825 167.857 167.857 0 00-1.39 4.087c-.287.902-.636 1.9-.775 2.218-.139.319-.515 1.371-.837 2.339-1.154 3.47-1.84 5.454-2.355 6.809a74.424 74.424 0 00-.974 2.754c-.828 2.532-1.432 4.273-1.938 5.584-.277.715-.651 1.833-.833 2.484-.182.65-.494 1.553-.694 2.005-.2.453-.549 1.435-.775 2.183-.226.748-.64 1.921-.922 2.607-.281.685-.558 1.597-.615 2.027l-.103.781h26.44l.636-1.95c.349-1.074.752-2.33.896-2.793a11.29 11.29 0 01.528-1.377c.147-.294.42-1.086.606-1.76a37.01 37.01 0 01.926-2.753c.322-.842.758-2.081.968-2.754.21-.674.77-2.326 1.243-3.672.473-1.347 1.16-3.35 1.525-4.454.366-1.102.766-2.204.89-2.448.122-.243.406-1.09.631-1.881.225-.791.607-1.893.85-2.448.243-.555.556-1.457.695-2.004.14-.547.485-1.58.768-2.295.283-.715.664-1.817.846-2.448.183-.631.506-1.56.718-2.065.212-.505.555-1.504.763-2.219.208-.715.552-1.714.765-2.218.213-.505.516-1.38.672-1.942.157-.564.5-1.562.762-2.219.262-.657.679-1.875.927-2.708.249-.832.577-1.761.73-2.065.154-.304.466-1.207.694-2.006.229-.8.61-1.91.848-2.47.237-.559.576-1.545.753-2.19.178-.646.503-1.6.725-2.12.221-.52.594-1.566.828-2.323.234-.758.85-2.582 1.371-4.055.52-1.473 1.115-3.194 1.32-3.825.205-.631.583-1.698.84-2.371.255-.674.703-2.009.994-2.968.291-.958.662-2.003.824-2.322.163-.318.442-1.117.62-1.776.178-.658.586-1.885.906-2.726.32-.842.786-2.15 1.036-2.907.888-2.696 1.283-3.844 1.816-5.279.297-.8.698-1.99.893-2.645.194-.655.562-1.722.818-2.371.255-.65.704-1.903.996-2.787.786-2.378 1.31-3.925 1.734-5.126.21-.589.553-1.587.764-2.218.211-.631.627-1.802.924-2.601.297-.8.696-1.987.886-2.638.19-.653.555-1.72.811-2.372.421-1.071.729-1.96 1.974-5.7.21-.631.52-1.526.688-1.989.169-.463.513-1.461.765-2.219.252-.757.665-1.927.918-2.6a51.73 51.73 0 00.897-2.678c.24-.8.675-2.073.964-2.83.482-1.259.735-1.993 1.879-5.432.21-.631.617-1.767.905-2.525.288-.757.7-1.984.915-2.727.215-.743.564-1.74.775-2.218.21-.477.557-1.487.77-2.245.212-.757.582-1.825.821-2.372.368-.84 1.377-4.328 1.377-4.76 0-.079-5.534-.136-13.12-.136l-13.12.001-.362 1.568M18.737 41.173c-7.277.638-12.98 6.013-13.78 12.989-1.172 10.193 3.71 16.869 13.594 18.593 7.555 1.317 15.56-3.453 17.65-10.52 2.53-8.555-.776-16.382-8.334-19.726-2.134-.944-2.47-1.04-4.536-1.28-2.073-.243-2.404-.248-4.594-.056m132.578 14.578c-.214.214-.539.926-.785 1.722a32.44 32.44 0 01-.903 2.503c-.266.631-.57 1.492-.673 1.912-.105.421-.455 1.454-.78 2.295-.325.842-.76 2.081-.97 2.754a53.672 53.672 0 01-.84 2.448 73.82 73.82 0 00-.837 2.372c-.207.631-.55 1.63-.762 2.218-.39 1.086-.768 2.196-1.64 4.82-.265.8-.743 2.142-1.06 2.983-.529 1.399-1.053 2.91-2.095 6.044a77.14 77.14 0 01-.842 2.371c-.254.674-.69 1.947-.971 2.831a69.31 69.31 0 01-.971 2.83c-.254.674-.632 1.74-.84 2.372-.208.631-.767 2.25-1.242 3.595a533.607 533.607 0 00-1.539 4.437 720.798 720.798 0 01-1.532 4.437l-1.523 4.361a306.559 306.559 0 00-1.153 3.366c-.266.8-.75 2.176-1.073 3.06-.324.884-.761 2.123-.971 2.754-.21.631-.804 2.352-1.32 3.825-.516 1.473-1.2 3.47-1.522 4.437-.32.968-.729 2.09-.907 2.493a13.306 13.306 0 00-.568 1.683c-.134.523-.507 1.638-.828 2.48-.569 1.492-1.1 3.016-2.025 5.813-.25.758-.716 2.066-1.035 2.907-.487 1.284-.783 2.258-1.482 4.858-.068.254.637.268 13.25.268 7.326 0 13.322-.052 13.324-.115.012-.535.529-2.374.96-3.42.292-.707.68-1.832.863-2.5.182-.67.529-1.669.77-2.22.241-.55.553-1.449.693-1.996.14-.547.518-1.683.84-2.525.322-.841.79-2.15 1.039-2.907 1.268-3.846 1.694-4.892 2.164-5.312l.471-.42v-38.1c0-26.402-.049-38.099-.16-38.099-.088 0-.324.164-.525.365M18.737 102.373c-7.277.638-12.98 6.013-13.78 12.989-1.172 10.193 3.71 16.869 13.594 18.593 7.555 1.317 15.56-3.453 17.65-10.52 2.53-8.555-.776-16.382-8.334-19.726-2.134-.944-2.47-1.04-4.536-1.28-2.073-.243-2.404-.248-4.594-.056" fill="#040404"/><path d="M-1 76.5V153h42.8l.104-.781c.057-.43.334-1.342.615-2.027.281-.686.696-1.859.922-2.607.226-.748.575-1.73.775-2.183.2-.452.512-1.355.694-2.005.182-.651.556-1.769.833-2.484.506-1.311 1.11-3.052 1.938-5.585.247-.757.686-1.996.974-2.754.515-1.354 1.201-3.338 2.355-6.808.322-.968.699-2.02.837-2.339.139-.318.488-1.316.775-2.218.287-.902.913-2.741 1.39-4.088a225.96 225.96 0 001.32-3.825 73.98 73.98 0 011.04-2.907c.324-.841.691-1.908.816-2.371.125-.463.47-1.496.769-2.295.298-.8.728-2.004.954-2.678.226-.673.773-2.256 1.214-3.519.441-1.262.99-2.845 1.22-3.519.23-.673.59-1.705.801-2.295.211-.589.554-1.587.761-2.218.208-.631.585-1.698.838-2.372.252-.673.63-1.774.84-2.448.208-.673.644-1.912.968-2.754.324-.841.698-1.954.832-2.474.134-.52.451-1.408.705-1.975.255-.566.575-1.483.713-2.038.138-.556.48-1.547.76-2.205.279-.657.617-1.621.751-2.142.135-.52.51-1.635.834-2.477a78.28 78.28 0 001.045-2.907c1.13-3.413 1.466-4.38 2.014-5.814.322-.841.697-1.966.834-2.498.138-.533.417-1.348.623-1.812.205-.464.588-1.54.851-2.394.263-.853.644-1.924.846-2.38.202-.457.474-1.25.606-1.763.132-.514.5-1.588.816-2.387.317-.8.665-1.798.774-2.219.11-.42.459-1.453.778-2.295.319-.841.786-2.15 1.04-2.907.253-.757.847-2.478 1.32-3.825.473-1.346 1.127-3.24 1.455-4.207 1.408-4.163 1.874-5.498 2.294-6.579.245-.631.56-1.56.7-2.066.138-.504.515-1.606.836-2.448a92.46 92.46 0 001.07-2.983c.267-.8.826-2.417 1.24-3.596a430.514 430.514 0 001.43-4.13c1.22-3.6 2.32-6.723 2.584-7.338.278-.645 1.015-3.42 1.015-3.82C94.319.022 89.85 0 46.659 0H-1v76.5M120.2 1.938c-.272 1.066-.693 2.392-.935 2.946-.243.554-.616 1.626-.828 2.384-.212.758-.559 1.768-.77 2.245-.211.477-.56 1.475-.775 2.218-.215.743-.627 1.97-.915 2.727a76.74 76.74 0 00-.905 2.525c-1.144 3.439-1.397 4.173-1.879 5.431-.29.758-.723 2.032-.964 2.831-.24.8-.644 2.004-.897 2.677-.437 1.166-.982 2.746-1.822 5.279a82.797 82.797 0 01-.687 1.989 106.6 106.6 0 00-.84 2.448c-.29.884-.74 2.14-.996 2.793-.256.652-.62 1.72-.81 2.371-.19.652-.59 1.84-.887 2.639-.297.8-.713 1.97-.924 2.601-.211.631-.555 1.63-.764 2.218-.425 1.201-.948 2.748-1.734 5.126-.292.884-.74 2.138-.996 2.787s-.624 1.716-.818 2.371a50.825 50.825 0 01-.893 2.645c-.533 1.435-.928 2.583-1.816 5.278-.25.758-.716 2.066-1.036 2.907-.32.842-.728 2.069-.906 2.727-.178.659-.457 1.458-.62 1.776-.162.319-.533 1.364-.824 2.322a56.574 56.574 0 01-.995 2.967 62.18 62.18 0 00-.839 2.372c-.205.631-.799 2.352-1.32 3.825a142.22 142.22 0 00-1.371 4.054 29.72 29.72 0 01-.828 2.324c-.221.52-.547 1.474-.724 2.12a20.988 20.988 0 01-.754 2.19c-.238.559-.62 1.67-.848 2.47-.228.8-.54 1.702-.693 2.006-.154.304-.482 1.233-.73 2.065-.249.833-.666 2.05-.928 2.708a26.482 26.482 0 00-.762 2.219 19.422 19.422 0 01-.672 1.942 24.844 24.844 0 00-.765 2.218 25.118 25.118 0 01-.763 2.219 22.998 22.998 0 00-.717 2.065 32.885 32.885 0 01-.847 2.448c-.283.715-.628 1.748-.768 2.295-.14.547-.452 1.449-.695 2.004-.243.555-.625 1.657-.85 2.448-.224.79-.509 1.638-.632 1.881-.123.244-.523 1.346-.889 2.448a319.127 319.127 0 01-1.525 4.454 148.393 148.393 0 00-1.243 3.672 56.85 56.85 0 01-.968 2.754 37.01 37.01 0 00-.926 2.754c-.186.673-.46 1.464-.61 1.759-.15.295-.458 1.155-.686 1.913-.228.757-.614 1.95-.858 2.651-.244.7-.444 1.338-.444 1.415 0 .303 49.236.177 49.317-.127.699-2.6.996-3.574 1.482-4.857.32-.842.785-2.15 1.035-2.907.925-2.798 1.456-4.322 2.025-5.814.321-.842.694-1.957.828-2.48.134-.521.39-1.279.568-1.682.178-.404.587-1.526.907-2.494.321-.968 1.006-2.964 1.522-4.437a360.04 360.04 0 001.32-3.825c.21-.631.647-1.87.97-2.754.324-.884.808-2.26 1.074-3.06.267-.8.785-2.314 1.153-3.366l1.523-4.36c.47-1.347 1.16-3.344 1.532-4.437.372-1.094 1.065-3.091 1.54-4.437a254.454 254.454 0 001.24-3.596c.21-.631.587-1.698.84-2.371.254-.674.692-1.947.972-2.831.28-.884.717-2.157.97-2.83.254-.674.634-1.74.843-2.372 1.042-3.133 1.566-4.645 2.095-6.043.317-.842.795-2.185 1.06-2.984.872-2.624 1.25-3.734 1.64-4.82.212-.589.555-1.587.762-2.218.208-.631.585-1.698.838-2.371.253-.674.63-1.775.84-2.448.208-.674.645-1.913.97-2.754.324-.842.674-1.875.779-2.295.104-.421.408-1.282.675-1.913.268-.631.642-1.664.833-2.295.449-1.488.703-1.964 1.163-2.173l.375-.171V0h-31.306l-.495 1.939m-96.868 39.29c2.066.24 2.402.336 4.536 1.28 7.558 3.344 10.865 11.17 8.334 19.727-3.08 10.411-16.8 14.1-26.028 7-4.18-3.218-5.98-8.419-5.217-15.074.887-7.725 7.052-12.835 15.847-13.137.338-.011 1.475.08 2.528.203m0 61.2c2.066.242 2.402.337 4.536 1.28 7.558 3.345 10.865 11.172 8.334 19.728-3.08 10.411-16.8 14.1-26.028 7-4.18-3.218-5.98-8.419-5.217-15.074.887-7.725 7.052-12.835 15.847-13.137.338-.011 1.475.08 2.528.203m128.06 29.683c-.332.354-.952 1.948-2.026 5.207-.25.757-.717 2.065-1.039 2.907-.322.841-.7 1.977-.84 2.524-.14.547-.452 1.445-.693 1.997-.24.55-.587 1.549-.77 2.218-.183.67-.571 1.794-.862 2.5-.432 1.047-.949 2.887-.961 3.421-.002.063 1.753.115 3.899.115H152v-10.633c0-5.849-.057-10.634-.126-10.634-.07 0-.287.17-.482.378" fill="#9c0404"/></g></svg>