<svg xmlns="http://www.w3.org/2000/svg" width="90" height="90"><path fill="#2473c6" d="M20.997 10c-1.512 0-2.957.31-4.271.868a11.095 11.095 0 0 0-5.858 5.858v.004a10.867 10.867 0 0 0-.645 2.054v.009c-.072.354-.13.717-.167 1.083v.004c-.038.367-.056.736-.056 1.113v46.211a2.2 2.2 0 0 0 0 .009v1.323a2.2 2.2 0 0 0 .284 1.075 2.2 2.2 0 0 0 .004.008c.145.64.328 1.268.58 1.861.152.358.367.68.554 1.019.157.282.28.584.46.85l.005.005c.395.584.844 1.127 1.34 1.624.088.088.194.152.284.237.425.398.862.785 1.345 1.113h.004c.585.396 1.21.739 1.866 1.018h.004c.656.28 1.346.498 2.058.645h.005c.355.073.716.13 1.083.168h.004c.367.037.74.06 1.117.06H29.8a2.2 2.2 0 0 0 .073-.005H76.01a2.2 2.2 0 0 0 2.2-2.2V18.806a2.2 2.2 0 0 0-2.2-2.205H31.07c-1.236-2.802-3.622-4.963-6.54-5.965-.264-.094-.53-.18-.804-.254-.335-.086-.664-.18-1.01-.236-.067-.011-.134-.02-.202-.03a10.935 10.935 0 0 0-1.49-.116h-.027zm0 4.4h.005c.416 0 .818.049 1.212.121.17.032.332.084.498.129.21.055.418.114.619.189.205.078.406.169.602.266a6.522 6.522 0 0 1 1.044.64c.058.044.111.093.167.138.238.194.47.394.68.62a6.607 6.607 0 0 1 1.555 2.848 2.2 2.2 0 0 0 .069.22c.1.458.159.931.159 1.422V58.48c-1.85-1.403-4.124-2.269-6.61-2.269-2.48 0-4.752.862-6.596 2.26V20.994a6.577 6.577 0 0 1 .516-2.57 6.548 6.548 0 0 1 3.502-3.507 6.65 6.65 0 0 1 2.578-.515V14.4zm11.01 6.602H73.81v52.807H21.002a6.578 6.578 0 0 1-4.676-1.92c-.164-.164-.297-.357-.443-.538-.12-.148-.254-.284-.36-.442a6.558 6.558 0 0 1-.607-1.118v-.004a6.587 6.587 0 0 1-.382-1.238v-.004a6.79 6.79 0 0 1-.133-1.332v-.009a6.577 6.577 0 0 1 .215-1.603 6.537 6.537 0 0 1 6.381-4.99c3.672 0 6.61 2.921 6.61 6.593v1.35a2.2 2.2 0 1 0 4.4-.018V67.3a2.2 2.2 0 0 0 0-.095V21.002z"/></svg>