<svg xmlns="http://www.w3.org/2000/svg" data-name="Layer 1" viewBox="0 0 512 512"><g fill="#878d96"><path d="M463.22 273.7h-34.54V111.38L299.17 38.85 161 116.56 143.76 87.2 290.54 2.59a15.69 15.69 0 0 1 17.26 0l146.78 82.89c5.18 3.45 8.64 8.63 8.64 15.54Z"/><path d="M212.83 512c-3.45 0-5.18 0-8.63-1.73L57.42 427.39c-5.18-3.46-8.64-8.64-8.64-15.55V239.16c0-6.9 3.46-12.08 8.64-15.54l146.78-82.88a15.65 15.65 0 0 1 17.26 0l146.78 82.88c5.18 3.46 8.64 8.64 8.64 15.54v172.68c0 6.91-3.46 12.09-8.64 15.55l-146.78 82.88C218 512 216.28 512 212.83 512ZM83.32 401.48 212.83 474l129.51-72.53v-152L212.83 177 83.32 249.52Z"/></g></svg>