<svg xmlns="http://www.w3.org/2000/svg" width="50" height="50" fill="none"><path fill="#AB2B4A" d="M41.481 15.665v19.33l-3.583-4.622-1.996-5.042h-.001l1.896-5.114 3.685-4.552z"/><path fill="#E87A68" d="M8.001 15.665v19.33l3.168-4.482 2.411-5.182h.002l-2.452-4.917L8 15.664z"/><path fill="#D74D4E" d="M35.901 25.33 25.349 26l-11.769-.67 4.912-9.665L24.742 6l6.795 10.611 4.364 8.72z"/><path fill="#BD3246" d="m41.481 15.665-5.58 9.666L24.741 6l16.74 9.665z"/><path fill="#F19175" d="m24.741 6-11.16 19.33L8 15.666 24.741 6z"/><path fill="#CF3942" d="m35.901 25.33-3.814 8.347-7.346 10.984-7.559-11.353-3.602-7.977h22.321z"/><path fill="#E0625B" d="M24.741 44.661 8 34.995l5.58-9.664 11.161 19.33z"/><path fill="#9A244F" d="m24.74 44.661 16.742-9.666-5.581-9.664-11.16 19.33z"/></svg>