<svg xmlns="http://www.w3.org/2000/svg" width="32" height="32"><path fill="#fff" d="M32 17.18a7.56 7.56 0 0 0-3.63-6.79 9.21 9.21 0 0 0-2.75-1.13 8.91 8.91 0 0 0-2.73-2.6A12.93 12.93 0 0 0 18.41 5a14.86 14.86 0 0 0-2.49-.21c-2.74 0-6.51.61-9 3.56a8.52 8.52 0 0 0-1.57 2.85 11 11 0 0 0-2.19 1.29A7.47 7.47 0 0 0 0 18.61 7.87 7.87 0 0 0 5 26a14.36 14.36 0 0 0 4.68 1.14h.63c.71 0 1.44 0 2.15-.1A16.22 16.22 0 0 0 18 25.68a7.18 7.18 0 0 0 3.41.85H22a7 7 0 0 0 4.46-1.59 6.71 6.71 0 0 0 4.94-4.34 9.79 9.79 0 0 0 .6-3.42Z"/><path fill="#215cca" d="M9.67 19.75A5.25 5.25 0 0 1 7.37 17a2.22 2.22 0 0 1 .6-1.2c.58-.67 7.31-8 10.16-9.24a12.91 12.91 0 0 0-2.23-.19c-8.43 0-9.24 6-9.24 6s-5.12 1.56-5.12 6.23c0 6.69 8.23 7 8.23 7a19 19 0 0 0 2.61-.09 1.55 1.55 0 0 0 1.07-.86c.49-1.21 1.21-3.12 1.91-5.13-2.74.15-5.36.29-5.69.23ZM30.46 17.19c0-5.91-5.79-6.54-5.79-6.54A7.37 7.37 0 0 0 22.07 8c-.51 1.84-1.85 6.76-1.93 7.68h2s.33 0 .24.4c-.19.9-.7 3.11-1.78 3.22l-1.43.08c-.39 1.6-.8 3.32-1.11 4.55A5.63 5.63 0 0 0 21.7 25a5.52 5.52 0 0 0 4-1.47c4.91-.84 4.76-6.34 4.76-6.34Z"/><path fill="#215cca" d="M18.26 9.8a51.68 51.68 0 0 0-6 6.2l4.34-.17c.89-2.5 1.66-4.73 2-5.71a.36.36 0 0 0-.34-.32Z"/></svg>