<svg width="152" height="152" xmlns="http://www.w3.org/2000/svg"><style>.st0{fill:#50abac}</style><g stroke="null" id="svg_38"><path stroke="null" id="svg_9" class="st0" d="M129.32 82.133l6.328 6.701 13.402-13.029-13.402-13.402-6.328 6.701-6.7 6.701z"/><path stroke="null" id="svg_10" class="st0" d="M127.459 67.243l6.7-6.7-13.401-13.03-13.03 13.03 13.03 13.4z"/><path stroke="null" id="svg_11" class="st0" d="M134.16 60.542h0l-6.701 6.7z"/><path stroke="null" id="svg_12" class="st0" d="M105.867 58.68l13.402-13.028-13.402-13.402-13.029 13.402 6.329 6.7z"/><path stroke="null" id="svg_13" class="st0" d="M107.729 90.696l6.7 6.7 6.329 6.329 13.401-13.03-6.7-6.7-6.701-6.701z"/><path stroke="null" id="svg_14" d="M134.16 90.696l-6.701-6.701 6.7 6.7z" class="st0"/><path stroke="null" id="svg_15" class="st0" d="M99.167 98.885l-6.329 6.701 13.03 13.03 13.4-13.03-6.7-6.7-6.7-6.701z"/><path stroke="null" id="svg_16" class="st0" d="M112.568 98.885l-6.7-6.7h0z"/><path stroke="null" id="svg_17" transform="scale(3.7226) rotate(-45 19.954 11.78)" fill="#4b5658" d="M11.68 15.558h5v5h-5z"/><path stroke="null" id="svg_18" class="st0" d="M59.334 45.652L45.933 32.25l-13.03 13.402 13.03 13.029 6.7-6.329z"/><path stroke="null" id="svg_19" fill="#235c5b" d="M59.334 45.652h0l-6.7 6.7z"/><path stroke="null" id="svg_20" class="st0" d="M45.933 92.185l-6.701 6.7-6.329 6.701 13.03 13.03 13.401-13.03-6.7-6.7z"/><path stroke="null" id="svg_21" class="st0" d="M52.633 98.885l-6.7-6.7h0z"/><path stroke="null" id="svg_22" class="st0" d="M22.48 69.104l-6.7-6.7L2.75 75.804l13.03 13.03 6.7-6.702 6.7-6.328z"/><path stroke="null" id="svg_23" class="st0" d="M44.071 60.542l-13.029-13.03-13.401 13.03 6.7 6.7 6.701 6.702z"/><path stroke="null" id="svg_24" d="M17.64 60.542l6.701 6.7-6.7-6.7z" class="st0"/><path stroke="null" id="svg_25" class="st0" d="M31.042 77.294l-6.7 6.7-6.701 6.702 13.401 13.029 6.329-6.329 6.7-6.7z"/><path stroke="null" id="svg_26" d="M31.042 103.725l6.7-6.701-6.7 6.7z" class="st0"/><path stroke="null" id="svg_27" class="st0" d="M17.64 90.696h0l6.701-6.701z"/></g></svg>