<svg width="152" height="152" xmlns="http://www.w3.org/2000/svg"><defs><linearGradient y2=".495" x2=".957" y1="0" x1="0" id="a"><stop stop-color="#FF7A18" offset=".344"/><stop stop-color="#D33961" offset=".667"/><stop stop-color="#36ACB4" offset="1"/></linearGradient></defs><path stroke="null" fill="url(#a)" d="M66.88 92.317L36.223 114.72c-3.68 2.455-6.527 4.08-10.207 4.08-7.36 0-13.506-6.5-13.506-13.829 0-6.119 4.896-10.578 9.409-12.618l35.969-15.453-35.969-15.937c-4.895-2.005-9.409-6.5-9.409-12.618 0-7.295 6.527-13.414 13.888-13.414 3.68 0 6.145 1.21 9.825 4.08L66.88 61.41l-4.097-36.264c-1.215-8.539 4.513-15.453 12.672-15.453 8.16 0 13.888 6.5 12.673 15.073L84.03 61.41l30.657-22.401c3.68-2.835 6.527-4.08 10.207-4.08 7.36 0 13.47 6.12 13.47 13.448 0 6.5-4.478 10.579-9.408 12.619L92.99 76.864l36.003 15.453c4.895 2.04 9.409 6.5 9.409 13.034 0 7.329-6.527 13.447-13.888 13.447-3.264 0-6.145-1.624-9.825-4.079L84.03 92.317l4.097 36.23C89.343 137.087 83.649 144 75.455 144c-8.159 0-13.887-6.499-12.672-15.072l4.097-36.61z"/></svg>