<svg xmlns="http://www.w3.org/2000/svg" xml:space="preserve" viewBox="0 0 192 192"><path fill="#455A65" d="M149.3 87.7c-6.2 10.8-20 14.4-30.7 8.2L51 57c-10.8-6.2-14.4-20-8.2-30.7 6.2-10.8 20-14.4 30.7-8.2L141 57c10.8 6.2 14.5 20 8.3 30.7z"/><path fill="#F7A94C" d="M149.3 165.8c-6.2 10.8-20 14.4-30.7 8.2L51 135c-10.8-6.2-14.4-20-8.2-30.7 6.2-10.8 20-14.4 30.7-8.2l67.6 39c10.7 6.2 14.4 19.9 8.2 30.7z"/><path fill="#E97534" d="M42.7 126.7c-6.2-10.8-2.5-24.5 8.2-30.7l67.6-39c10.8-6.2 24.5-2.5 30.7 8.2 6.2 10.8 2.5 24.5-8.2 30.7l-67.6 39c-10.7 6.2-24.4 2.6-30.7-8.2z"/></svg>