<svg xmlns="http://www.w3.org/2000/svg" width="75" height="75" data-name="Livello 1"><defs><clipPath id="a" transform="translate(0 .1)"><path fill="none" d="M7 19.5v35L37.4 72l30.5-17.6V19.5L37.4 2 7 19.5z"/></clipPath></defs><g stroke="null"><g clip-path="url(#a)"><path fill="#21887e" d="M19.2 12.5v7.1l6.1-3.6-6.1-3.5z"/></g><g clip-path="url(#a)"><path fill="#7dc9c9" d="M19.2 19.6v-7.1L13.1 16l6.1 3.6z"/></g><g clip-path="url(#a)"><path fill="#29a769" d="M19.2 19.6v6.9l6.1-3.5-6.1-3.4z"/></g><g clip-path="url(#a)"><path fill="#80bc50" d="M19.2 26.5v-6.9L13.1 23l6.1 3.5z"/></g><g clip-path="url(#a)"><path fill="#73b72b" d="M19.2 26.5v7.1l6.1-3.6-6.1-3.5z"/></g><g clip-path="url(#a)"><path fill="#b7d37c" d="M19.2 33.6v-7.1l-6.1 3.6 6.1 3.5z"/></g><g clip-path="url(#a)"><path fill="#32bad1" d="M19.2 33.6v6.9l6.1-3.5-6.1-3.4z"/></g><g clip-path="url(#a)"><path fill="#45ad4a" d="M19.2 40.5v-6.9L13.1 37l6.1 3.5z"/></g><g clip-path="url(#a)"><path fill="#597bb8" d="M19.2 40.5v7.1l6.1-3.5-6.1-3.6z"/></g><g clip-path="url(#a)"><path fill="#356e49" d="M19.2 47.6v-7.1l-6.1 3.6 6.1 3.5z"/></g><g clip-path="url(#a)"><path fill="#209ed9" d="M19.2 47.6v6.9l6.1-3.5-6.1-3.4z"/></g><g clip-path="url(#a)"><path fill="#213970" d="M19.2 54.5v-6.9L13.1 51l6.1 3.5z"/></g><g clip-path="url(#a)"><path fill="#2075bb" d="M19.2 54.5v7.1l6.1-3.5-6.1-3.6z"/></g><g clip-path="url(#a)"><path fill="#268eaa" d="M19.2 61.6v-7.1l-6.1 3.6 6.1 3.5z"/></g><g clip-path="url(#a)"><path fill="none" d="m25.3 65-6.1-3.4"/></g><g clip-path="url(#a)"><path fill="none" d="M31.3 5.5 37.4 2"/></g><g clip-path="url(#a)"><path fill="#2352a0" d="M31.3 5.5v7L37.4 9l-6.1-3.5z"/></g><g clip-path="url(#a)"><path fill="#156181" d="M31.3 12.5v-7l-6 3.5 6 3.5z"/></g><g clip-path="url(#a)"><path fill="#2352a0" d="M31.3 12.5v7.1l6.1-3.6-6.1-3.5z"/></g><g clip-path="url(#a)"><path fill="#6cc6d7" d="M31.3 19.6v-7.1l-6 3.5 6 3.6z"/></g><g clip-path="url(#a)"><path fill="#1d4588" d="M31.3 19.6v6.9l6.1-3.5-6.1-3.4z"/></g><g clip-path="url(#a)"><path fill="#268eaa" d="M31.3 26.5v-6.9l-6 3.4 6 3.5z"/></g><g clip-path="url(#a)"><path fill="#176597" d="M31.3 26.5v7l6.1-3.5-6.1-3.5z"/></g><g clip-path="url(#a)"><path fill="#222e59" d="M31.3 33.5v-7l-6 3.5 6 3.5z"/></g><g clip-path="url(#a)"><path fill="#1a6b9b" d="M31.3 33.5v7l6.1-3.5-6.1-3.5z"/></g><g clip-path="url(#a)"><path fill="#90c7e9" d="M31.3 40.5v-7l-6 3.5 6 3.5z"/></g><g clip-path="url(#a)"><path fill="#597bb8" d="M31.3 40.5v7.1l6.1-3.6-6.1-3.5z"/></g><g clip-path="url(#a)"><path fill="#29327a" d="M31.3 47.6v-7.1l-6 3.6 6 3.5z"/></g><g clip-path="url(#a)"><path fill="#597bb8" d="M31.3 47.6v6.9l6.1-3.5-6.1-3.4z"/></g><g clip-path="url(#a)"><path fill="#2352a0" d="M31.3 54.5v-6.9l-6 3.4 6 3.5z"/></g><g clip-path="url(#a)"><path fill="#2ab0ae" d="M31.3 54.5v7.1l6.1-3.5-6.1-3.6z"/></g><g clip-path="url(#a)"><path fill="#1d4588" d="M31.3 61.6v-7.1l-6 3.6 6 3.5z"/></g><g clip-path="url(#a)"><path fill="#4bbbbc" d="M31.3 61.6v6.9l6.1-3.5-6.1-3.4z"/></g><g clip-path="url(#a)"><path fill="#85bedc" d="M31.3 68.5v-6.9l-6 3.4"/></g><g clip-path="url(#a)"><path fill="none" d="M31.3 75.6v-7.1"/></g><g clip-path="url(#a)"><path fill="#2eb4a9" d="M7 19.6v6.9l6.1-3.5L7 19.6z"/></g><g clip-path="url(#a)"><path fill="#7dc9c9" d="M7 26.5v7.1l6.1-3.5L7 26.5z"/></g><g clip-path="url(#a)"><path fill="#1366b0" d="M7 33.6v6.9l6.1-3.5L7 33.6z"/></g><g clip-path="url(#a)"><path fill="#91b523" d="M7 40.5v7.1l6.1-3.5L7 40.5z"/></g><g clip-path="url(#a)"><path fill="#00b4be" d="M7 47.6v7l6.1-3.6L7 47.6z"/></g><g clip-path="url(#a)"><path fill="#db2d88" d="M67.9 26.5v-7L61.8 23l6.1 3.5z"/></g><g clip-path="url(#a)"><path fill="#d61e5f" d="M67.9 33.5v-7L61.8 30l6.1 3.5z"/></g><g clip-path="url(#a)"><path fill="#f49a70" d="M67.9 40.5v-7L61.8 37l6.1 3.5z"/></g><g clip-path="url(#a)"><path fill="#ea5428" d="M67.9 47.5v-7L61.8 44l6.1 3.5z"/></g><g clip-path="url(#a)"><path fill="#d54728" d="M67.9 54.5v-7L61.8 51l6.1 3.5z"/></g><g clip-path="url(#a)"><path fill="none" d="m37.4 2 6.1 3.5"/></g><g clip-path="url(#a)"><path fill="#522776" d="M43.5 5.5v7L49.6 9l-6.1-3.5z"/></g><g clip-path="url(#a)"><path fill="#352e87" d="M43.5 12.5v-7L37.4 9l6.1 3.5z"/></g><g clip-path="url(#a)"><path fill="#352e87" d="M43.5 12.5v7.1l6.1-3.6-6.1-3.5z"/></g><g clip-path="url(#a)"><path fill="#1e82b6" d="M43.5 19.6v-7.1L37.4 16l6.1 3.6z"/></g><g clip-path="url(#a)"><path fill="#597bb8" d="M43.5 19.6v6.9l6.1-3.5-6.1-3.4z"/></g><g clip-path="url(#a)"><path fill="#1e82b6" d="M43.5 26.5v-6.9L37.4 23l6.1 3.5z"/></g><g clip-path="url(#a)"><path fill="#597bb8" d="M43.5 26.5v7l6.1-3.5-6.1-3.5z"/></g><g clip-path="url(#a)"><path fill="#1e6d9b" d="M43.5 33.5v-7L37.4 30l6.1 3.5z"/></g><g clip-path="url(#a)"><path fill="#31a7df" d="M43.5 33.5v7l6.1-3.5-6.1-3.5z"/></g><g clip-path="url(#a)"><path fill="#156181" d="M43.5 40.5v-7L37.4 37l6.1 3.5z"/></g><g clip-path="url(#a)"><path fill="#597bb8" d="M43.5 40.5v7.1l6.1-3.6-6.1-3.5z"/></g><g clip-path="url(#a)"><path fill="#bbdaee" d="M43.5 47.6v-7.1l-6.1 3.6 6.1 3.5z"/></g><g clip-path="url(#a)"><path fill="#597bb8" d="M43.5 47.6v6.9l6.1-3.5-6.1-3.4z"/></g><g clip-path="url(#a)"><path fill="#222e59" d="M43.5 54.5v-6.9L37.4 51l6.1 3.5z"/></g><g clip-path="url(#a)"><path fill="#0b72b8" d="M43.5 54.5v7.1l6.1-3.5-6.1-3.6z"/></g><g clip-path="url(#a)"><path fill="#036bb2" d="M43.5 61.6v-7.1l-6.1 3.6 6.1 3.5z"/></g><g clip-path="url(#a)"><path fill="#3e768d" d="M43.5 61.6v6.9l6.1-3.5-6.1-3.4z"/></g><g clip-path="url(#a)"><path fill="#0b557b" d="M43.5 68.5v-6.9L37.4 65l6.1 3.5z"/></g><g clip-path="url(#a)"><path fill="#e3afd0" d="M55.7 12.5v7l6.1-3.5-6.1-3.5z"/></g><g clip-path="url(#a)"><path fill="#d47cb1" d="M55.7 19.5v-7L49.6 16l6.1 3.5z"/></g><g clip-path="url(#a)"><path fill="#d54728" d="M55.7 19.5v7l6.1-3.5-6.1-3.5z"/></g><g clip-path="url(#a)"><path fill="#e72970" d="M55.7 26.5v-7L49.6 23l6.1 3.5z"/></g><g clip-path="url(#a)"><path fill="#f4a18b" d="M55.7 26.5v7l6.1-3.5-6.1-3.5z"/></g><g clip-path="url(#a)"><path fill="#ae2d88" d="M55.7 33.5v-7L49.6 30l6.1 3.5z"/></g><g clip-path="url(#a)"><path fill="#d47cb1" d="M55.7 33.5v7l6.1-3.5-6.1-3.5z"/></g><g clip-path="url(#a)"><path fill="#34348b" d="M55.7 40.5v-7L49.6 37l6.1 3.5z"/></g><g clip-path="url(#a)"><path fill="#ea4d81" d="M55.7 40.5v7l6.1-3.5-6.1-3.5z"/></g><g clip-path="url(#a)"><path fill="#59347c" d="M55.7 47.5v-7L49.6 44l6.1 3.5z"/></g><g clip-path="url(#a)"><path fill="#c34d96" d="M55.7 47.5v7l6.1-3.5-6.1-3.5z"/></g><g clip-path="url(#a)"><path fill="#ad2986" d="M55.7 54.5v-7L49.6 51l6.1 3.5z"/></g><g clip-path="url(#a)"><path fill="#c5579c" d="M55.7 54.5v7.1l6.1-3.6-6.1-3.5z"/></g><g clip-path="url(#a)"><path fill="#7c4d99" d="M55.7 61.6v-7.1l-6.1 3.6 6.1 3.5z"/></g><g clip-path="url(#a)"><path fill="#80bc50" d="M25.3 9v7l6-3.5-6-3.5z"/></g><g clip-path="url(#a)"><path fill="#45ad4a" d="M25.3 16V9l-6.1 3.5 6.1 3.5z"/></g><g clip-path="url(#a)"><path fill="#156181" d="M25.3 16v7l6-3.4-6-3.6z"/></g><g clip-path="url(#a)"><path fill="#21887e" d="M25.3 23v-7l-6.1 3.6 6.1 3.4z"/></g><g clip-path="url(#a)"><path fill="#597bb8" d="M25.3 23v7l6-3.5-6-3.5z"/></g><g clip-path="url(#a)"><path fill="#cbd622" d="M25.3 30v-7l-6.1 3.5 6.1 3.5z"/></g><g clip-path="url(#a)"><path fill="#e0ecf5" d="M25.3 30v7l6-3.5-6-3.5z"/></g><g clip-path="url(#a)"><path fill="#268eaa" d="M25.3 37v-7l-6.1 3.6 6.1 3.4z"/></g><g clip-path="url(#a)"><path fill="#1e82b6" d="M25.3 37v7.1l6-3.6-6-3.5z"/></g><g clip-path="url(#a)"><path fill="#2ab0ae" d="M25.3 44.1V37l-6.1 3.5 6.1 3.6z"/></g><g clip-path="url(#a)"><path fill="#2aadc9" d="M25.3 44.1V51l6-3.4-6-3.5z"/></g><g clip-path="url(#a)"><path fill="#268eaa" d="M25.3 51v-6.9l-6.1 3.5 6.1 3.4z"/></g><g clip-path="url(#a)"><path fill="#597bb8" d="M25.3 51v7.1l6-3.6-6-3.5z"/></g><g clip-path="url(#a)"><path fill="#222e59" d="M25.3 58.1V51l-6.1 3.5 6.1 3.6z"/></g><g clip-path="url(#a)"><path fill="#a9cee1" d="M25.3 58.1V65l6-3.4-6-3.5z"/></g><g clip-path="url(#a)"><path fill="#97c5df" d="M25.3 65v-6.9l-6.1 3.5 6.1 3.4z"/></g><g clip-path="url(#a)"><path fill="#2857a4" d="M37.4 2v7l6.1-3.5L37.4 2z"/></g><g clip-path="url(#a)"><path fill="#2276bb" d="M37.4 9V2l-6.1 3.5L37.4 9z"/></g><g clip-path="url(#a)"><path fill="#213970" d="M37.4 9v7l6.1-3.5L37.4 9z"/></g><g clip-path="url(#a)"><path fill="#222e59" d="M37.4 16V9l-6.1 3.5 6.1 3.5z"/></g><g clip-path="url(#a)"><path fill="#29327a" d="M37.4 16v7l6.1-3.5-6.1-3.5z"/></g><g clip-path="url(#a)"><path fill="#1a4080" d="M37.4 23v-7l-6.1 3.6 6.1 3.4z"/></g><g clip-path="url(#a)"><path fill="#1f7ebd" d="M37.4 23v7l6.1-3.5-6.1-3.5z"/></g><g clip-path="url(#a)"><path fill="#209ed9" d="M37.4 30v-7l-6.1 3.5 6.1 3.5z"/></g><g clip-path="url(#a)"><path fill="#6499af" d="M37.4 30v7l6.1-3.5-6.1-3.5z"/></g><g clip-path="url(#a)"><path fill="#bfd6e8" d="M37.4 37v-7l-6.1 3.5 6.1 3.5z"/></g><g clip-path="url(#a)"><path fill="#2352a0" d="M37.4 37v7l6.1-3.5-6.1-3.5z"/></g><g clip-path="url(#a)"><path fill="#1c77ab" d="M37.4 44v-7l-6.1 3.5 6.1 3.5z"/></g><g clip-path="url(#a)"><path fill="#0972b8" d="M37.4 44v7l6.1-3.5-6.1-3.5z"/></g><g clip-path="url(#a)"><path fill="#293276" d="M37.4 51v-7l-6.1 3.6 6.1 3.4z"/></g><g clip-path="url(#a)"><path fill="#3e768d" d="M37.4 51v7.1l6.1-3.6-6.1-3.5z"/></g><g clip-path="url(#a)"><path fill="#165385" d="M37.4 58.1V51l-6.1 3.5 6.1 3.6z"/></g><g clip-path="url(#a)"><path fill="#213970" d="M37.4 58.1V65l6.1-3.4-6.1-3.5z"/></g><g clip-path="url(#a)"><path fill="#2aadc9" d="M37.4 65v-6.9l-6.1 3.5 6.1 3.4z"/></g><g clip-path="url(#a)"><path fill="#b1c2e1" d="M37.4 65v7l6.1-3.5-6.1-3.5z"/></g><g clip-path="url(#a)"><path fill="#0b72b8" d="M37.4 72v-7l-6.1 3.5 6.1 3.5z"/></g><g clip-path="url(#a)"><path fill="#b9ddd5" d="M13.1 16v7l6.1-3.4-6.1-3.6z"/></g><g clip-path="url(#a)"><path fill="#73c3b5" d="M13.1 23v-7L7 19.6l6.1 3.4z"/></g><g clip-path="url(#a)"><path fill="#8fd0d6" d="M13.1 23v7.1l6.1-3.6-6.1-3.5z"/></g><g clip-path="url(#a)"><path fill="#2baa98" d="M13.1 30.1V23L7 26.5l6.1 3.6z"/></g><g clip-path="url(#a)"><path fill="#80bc50" d="M13.1 30.1V37l6.1-3.4-6.1-3.5z"/></g><g clip-path="url(#a)"><path fill="#32bad1" d="M13.1 37v-6.9L7 33.6l6.1 3.4z"/></g><g clip-path="url(#a)"><path fill="#29a769" d="M13.1 37v7.1l6.1-3.6-6.1-3.5z"/></g><g clip-path="url(#a)"><path fill="#21887e" d="M13.1 44.1V37L7 40.5l6.1 3.6z"/></g><g clip-path="url(#a)"><path fill="#156181" d="M13.1 44.1V51l6.1-3.4-6.1-3.5z"/></g><g clip-path="url(#a)"><path fill="#1a7145" d="M13.1 51v-6.9L7 47.6l6.1 3.4z"/></g><g clip-path="url(#a)"><path fill="#21887e" d="M13.1 51v7.1l6.1-3.6-6.1-3.5z"/></g><g clip-path="url(#a)"><path fill="#25573d" d="M13.1 58.1V51L7 54.6l6.1 3.5z"/></g><g clip-path="url(#a)"><path fill="#b2388d" d="M49.6 9v7l6.1-3.5L49.6 9z"/></g><g clip-path="url(#a)"><path fill="#a22680" d="M49.6 16V9l-6.1 3.5 6.1 3.5z"/></g><g clip-path="url(#a)"><path fill="#ed81a9" d="M49.6 16v7l6.1-3.5-6.1-3.5z"/></g><g clip-path="url(#a)"><path fill="#4f3b90" d="M49.6 23v-7l-6.1 3.6 6.1 3.4z"/></g><g clip-path="url(#a)"><path fill="#a22680" d="M49.6 23v7l6.1-3.5-6.1-3.5z"/></g><g clip-path="url(#a)"><path fill="#036bb2" d="M49.6 30v-7l-6.1 3.5 6.1 3.5z"/></g><g clip-path="url(#a)"><path fill="#83368c" d="M49.6 30v7l6.1-3.5-6.1-3.5z"/></g><g clip-path="url(#a)"><path fill="#3d2871" d="M49.6 37v-7l-6.1 3.5 6.1 3.5z"/></g><g clip-path="url(#a)"><path fill="#8d7aa5" d="M49.6 37v7l6.1-3.5-6.1-3.5z"/></g><g clip-path="url(#a)"><path fill="#1c77ab" d="M49.6 44v-7l-6.1 3.5 6.1 3.5z"/></g><g clip-path="url(#a)"><path fill="#6b3f91" d="M49.6 44v7l6.1-3.5-6.1-3.5z"/></g><g clip-path="url(#a)"><path fill="#502f88" d="M49.6 51v-7l-6.1 3.6 6.1 3.4z"/></g><g clip-path="url(#a)"><path fill="#1366b0" d="M49.6 51v7.1l6.1-3.6-6.1-3.5z"/></g><g clip-path="url(#a)"><path fill="#805ba2" d="M49.6 58.1V51l-6.1 3.5 6.1 3.6z"/></g><g clip-path="url(#a)"><path fill="#4d4e9c" d="M49.6 58.1V65l6.1-3.4-6.1-3.5z"/></g><g clip-path="url(#a)"><path fill="#4f609a" d="M49.6 65v-6.9l-6.1 3.5 6.1 3.4z"/></g><g clip-path="url(#a)"><path fill="#e11883" d="M61.8 16v7l6.1-3.5-6.1-3.5z"/></g><g clip-path="url(#a)"><path fill="#d61e5f" d="M61.8 23v-7l-6.1 3.5 6.1 3.5z"/></g><g clip-path="url(#a)"><path fill="#e9427b" d="M61.8 23v7l6.1-3.5-6.1-3.5z"/></g><g clip-path="url(#a)"><path fill="#ed6d24" d="M61.8 30v-7l-6.1 3.5 6.1 3.5z"/></g><g clip-path="url(#a)"><path fill="#f6a861" d="M61.8 30v7l6.1-3.5-6.1-3.5z"/></g><g clip-path="url(#a)"><path fill="#f9b433" d="M61.8 37v-7l-6.1 3.5 6.1 3.5z"/></g><g clip-path="url(#a)"><path fill="#f6a861" d="M61.8 37v7l6.1-3.5-6.1-3.5z"/></g><g clip-path="url(#a)"><path fill="#ce94b4" d="M61.8 44v-7l-6.1 3.5 6.1 3.5z"/></g><g clip-path="url(#a)"><path fill="#f08223" d="M61.8 44v7l6.1-3.5-6.1-3.5z"/></g><g clip-path="url(#a)"><path fill="#ed81a9" d="M61.8 51v-7l-6.1 3.5 6.1 3.5z"/></g><g clip-path="url(#a)"><path fill="#e25a2a" d="M61.8 51v7l6.1-3.5-6.1-3.5z"/></g><g clip-path="url(#a)"><path fill="#e32c4b" d="M61.8 58v-7l-6.1 3.5 6.1 3.5z"/></g><path fill="#fff" d="M44.7 22.1c-3.3-3.2-6.3-6.3-7.2-9.7-.9 3.4-4.1 6.6-7.2 9.7C25.4 27 20 32.4 20 40.7a17.6 17.6 0 1 0 35.1 0c0-8.3-5.5-13.7-10.4-18.6M28.9 42.3c-.5.7-1 1.4-1.4 2.1s-.1.3-.2.3h-.2c-.4 0-.9-.8-.9-.8l-.2-.5c-.1 0-.1-.1-.1-.2-1.1-2.3-.2-5.6-.2-5.6a12.4 12.4 0 0 1 2.1-4.5 24.8 24.8 0 0 1 1.9-2.6l.9.9 3.9 4a.6.6 0 0 1 0 .6l-4.1 4.5-1.5 1.8zm8.8 11.5a6 6 0 0 1-6-6.1 5.4 5.4 0 0 1 1.5-3.9c1.3-1.6 2.8-3.1 4.5-5.1l4.6 5.2.3.5a6.1 6.1 0 0 1-4.8 9.4h-.1m11.4-9.6-.5.5h-.1a1 1 0 0 1-.6-.5 21.7 21.7 0 0 0-3.6-4.4l-1.6-1.7-5.4-5.6c-.8-.8-2.5-2.4-3.1-3.2v-.2l-.4-.8v-.2a2.3 2.3 0 0 1 .2-1.6 1.6 1.6 0 0 1 .6-.8l3-3.2c1.1 1.3 2.3 2.4 3.4 3.5a60.4 60.4 0 0 1 6.3 7.1 13 13 0 0 1 2.5 7.6 19.7 19.7 0 0 1-.6 3.5"/></g></svg>