<svg xmlns="http://www.w3.org/2000/svg" width="32" height="32" aria-hidden="true" class="svg-icon" data-name="Layer 1"><path d="M19.59 11.83c0-1.81 1.23-3.58 1.9-3.24s-.57 2.09-1.9 3.24m-8.38.67c0-1.46 1.45-4.24 2.33-3.95 1.04.35-.86 3.15-2.33 3.95zM9.75 23a1 1 0 0 1-1.11-1.1c0-1.91 2.65-3.73 4.64-4.71-.35 2.62-1.28 5.67-3.53 5.81zm12.19-6.21a2.54 2.54 0 0 0-2.66 2.44c0 1.11.66 2 1.55 2a.57.57 0 0 0 .62-.58c0-.58-.76-.72-.7-1.58a1.07 1.07 0 0 1 1.1-1c1.06 0 1.56 1 1.56 2.1A2.72 2.72 0 0 1 20.74 23c-1.86 0-3-1.77-3-3.68a4.08 4.08 0 0 1 2.83-4.21s2.55.45 2.47-.67c0-.49-.77-.68-1.3-.7a3.67 3.67 0 0 0-1.18.19 1.43 1.43 0 0 1-.65-.81C21.67 11.7 23 10.37 23 8.86a1.45 1.45 0 0 0-1.55-1.5c-1.82 0-3.19 2.3-3.19 4.38a4.18 4.18 0 0 0 .08 1 38.41 38.41 0 0 1-3.56 2.3 7.33 7.33 0 0 1 .18-1.34 4.1 4.1 0 0 0 1.26-2.11.52.52 0 0 0-.54-.57c-.88 0-1.55 1.33-1.72 2.26a3 3 0 0 1-1.86 1.11.81.81 0 0 1-.76-.67c1.69-.58 3.77-2.88 3.77-5A1.35 1.35 0 0 0 13.6 7.3c-2 0-3.68 3-3.68 5.27-.71 0-1-.75-1-1.33A9.09 9.09 0 0 1 9.13 10a.36.36 0 0 0-.35-.4c-.67 0-1.07.89-1.07 1.91a2.33 2.33 0 0 0 2.22 2.39 2 2 0 0 0 1.86 1.64 2.66 2.66 0 0 0 1.77-.62c0 .31-.09.58-.13.84a21.51 21.51 0 0 0-4.65 2.88 4.65 4.65 0 0 0-1.6 3.15 2.44 2.44 0 0 0 2.57 2.57c2 0 3.59-1.64 4.34-3.9a17.32 17.32 0 0 0 .59-4 40.68 40.68 0 0 0 4.07-2.57 1.66 1.66 0 0 0 .44.53A5.53 5.53 0 0 0 16 19.46a4.65 4.65 0 0 0 4.61 4.87 4.22 4.22 0 0 0 4.26-4.07c.04-1.82-.98-3.51-2.93-3.51v.04zm7.62 3.81a.06.06 0 0 1-.08 0s-.05 0-.05-.06a12.47 12.47 0 0 0 .57-3.43c0-1.95-.8-3.15-1.82-3.15a1 1 0 0 0-1.06 1.11c0 1.2 1.46 1.28 1.46 3.9a10.48 10.48 0 0 1-.58 3.19c-1.64 5.54-6.87 8.11-12 8.11a12.84 12.84 0 0 1-4.52-.7s0-.05 0-.09 0-.06.07-.05a11 11 0 0 0 3.41.53c2 0 3.1-.8 3.1-1.77a1.1 1.1 0 0 0-1.11-1.11c-1.2 0-1.29 1.51-3.86 1.51A10.45 10.45 0 0 1 9.84 28c-5.5-1.68-8.12-6.87-8.11-12a14.93 14.93 0 0 1 .71-4.52.09.09 0 0 1 .08 0 .07.07 0 0 1 0 .06 11.36 11.36 0 0 0-.52 3.4c0 2 .8 3.1 1.82 3.1A1 1 0 0 0 4.92 17c0-1.2-1.46-1.33-1.46-3.9A10.74 10.74 0 0 1 4 9.84c1.69-5.5 6.87-8.07 12-8.11a13.45 13.45 0 0 1 4.52.75.07.07 0 0 1 0 .08.06.06 0 0 1-.05 0A9.71 9.71 0 0 0 17.06 2c-1.9 0-3.1.8-3.1 1.82a1.06 1.06 0 0 0 1.11 1.06c1.2 0 1.29-1.46 3.85-1.46a10.74 10.74 0 0 1 3.24.58c5.54 1.72 8.06 7 8.11 12a13.6 13.6 0 0 1-.71 4.56v.04zM16 .75A15.25 15.25 0 1 0 31.25 16 15.25 15.25 0 0 0 16 .75zM16 32a16 16 0 1 1 16-16 16 16 0 0 1-16 16z"/></svg>