<svg xmlns="http://www.w3.org/2000/svg" width="56" height="56" fill="none"><path fill="#F57AFF" d="M46.925 28.436s.317-.527 2.43-4.3c3.976-7.039-.33-10.865-1.431-18.527-.404-2.815-1.118-5.78-2.836-3.722-2.852 3.412-1.44 6.491-.504 9.325-1.051-2.358-2.027-3.128-2.643-2.582-1.159 1.047-1.361 4.527.045 8.391 0 0-1.279-2.34-2.257-1.67-1.838 1.295-.977 5.267.946 7.34 2.105 2.273 2.692 4.08 2.634 5.048-.042 1.42 3.338 1.002 3.616.697z"/><path fill="#fff" fill-rule="evenodd" d="M21.275 19.354c-1.134-.622-1.796-1.388-1.657-2.072.232-1.14 2.6-1.62 5.287-1.072 1.004.205 1.91.523 2.64.902v-.003c.233-1.14 2.6-1.62 5.288-1.072 1.437.293 2.675.82 3.48 1.422.954-.474 2.87-.28 4.848.576 1.748.756 3.086 1.83 3.586 2.773 4.832 2.841 8.857 7.386 9.006 13.07.262 9.9-8.579 15.705-19.521 15.981-10.943.276-19.855-5.03-20.117-14.929-.128-4.845 1.985-9.114 5.46-12.211-1.128-.621-1.788-1.386-1.649-2.07.174-.852 1.544-1.335 3.349-1.295z" clip-rule="evenodd"/><path fill="#003451" d="m21.275 19.354-.01.466a.466.466 0 0 0 .234-.874l-.224.408zm-1.657-2.072-.456-.093.456.093zm5.287-1.072-.093.457.093-.457zm2.64.902-.215.414a.466.466 0 0 0 .672-.322l-.457-.092zm0-.003-.456-.093.457.093h-.001zm5.288-1.072.093-.456-.093.456zm3.48 1.422-.278.374c.14.105.329.122.486.044l-.208-.418zm4.848.576-.185.427.185-.427zm3.586 2.773-.412.218c.04.076.101.14.176.184l.236-.402zm9.006 13.07-.465.012.465-.012zM34.232 49.86l-.012-.466.012.466zM14.115 34.93l.466-.012-.466.012zm5.46-12.211.311.348a.466.466 0 0 0-.085-.756l-.225.408h-.001zm-1.649-2.07.457.094-.457-.093v-.001zm3.573-1.703c-.535-.294-.93-.606-1.169-.9-.241-.295-.286-.518-.255-.671l-.913-.186c-.108.53.108 1.033.446 1.447.34.417.844.799 1.443 1.127l.448-.817zm-1.424-1.571c.026-.129.119-.279.347-.43.23-.153.57-.285 1.011-.375.882-.179 2.081-.168 3.379.097l.186-.914c-1.39-.283-2.718-.306-3.75-.097-.515.105-.979.272-1.341.512-.365.242-.655.58-.745 1.02l.913.187zm4.737-.708c.967.197 1.831.502 2.518.859l.43-.828c-.773-.4-1.721-.732-2.762-.944l-.186.913zm3.19.537v-.003l-.913-.184v.003l.913.184zm0-.002c.027-.129.12-.279.347-.43.23-.153.57-.285 1.012-.375.882-.179 2.08-.168 3.378.097l.187-.913c-1.39-.284-2.719-.306-3.75-.097-.515.104-.979.27-1.342.511-.365.242-.655.58-.745 1.02l.914.187h-.001zm4.738-.708c1.39.283 2.558.789 3.295 1.339l.558-.747c-.875-.653-2.182-1.203-3.667-1.505l-.187.913h.001zm3.781 1.383c.36-.18.97-.258 1.78-.166.793.09 1.722.34 2.675.751l.37-.855c-1.026-.444-2.044-.72-2.94-.822-.883-.1-1.706-.039-2.3.257l.415.834v.001zm4.455.585c1.707.739 2.931 1.757 3.36 2.564l.823-.436c-.572-1.08-2.023-2.209-3.813-2.983l-.37.855zm3.535 2.748c4.763 2.8 8.633 7.224 8.777 12.68l.931-.024c-.155-5.912-4.335-10.578-9.236-13.46l-.472.804zm8.777 12.68c.126 4.79-1.942 8.578-5.378 11.218-3.448 2.649-8.292 4.149-13.69 4.285l.023.932c5.544-.14 10.593-1.68 14.235-4.478 3.655-2.807 5.876-6.872 5.741-11.981l-.931.025v-.001zM34.22 49.394c-5.4.136-10.258-1.106-13.785-3.565-3.514-2.449-5.727-6.116-5.854-10.91l-.932.025c.135 5.105 2.51 9.04 6.253 11.65 3.73 2.6 8.798 3.872 14.341 3.732l-.023-.932zM14.58 34.918c-.124-4.693 1.92-8.835 5.305-11.851l-.62-.696c-3.566 3.178-5.749 7.574-5.617 12.572l.932-.025zm2.889-14.361c-.108.53.107 1.031.444 1.445.34.416.841.797 1.437 1.125l.45-.816c-.534-.294-.926-.605-1.164-.898-.24-.295-.285-.517-.254-.67l-.913-.186zm3.815-1.669c-.94-.02-1.797.093-2.46.343-.646.243-1.22.664-1.355 1.326l.913.186c.039-.191.236-.439.77-.64.517-.195 1.246-.302 2.111-.283l.021-.932z"/><path stroke="#003451" stroke-linecap="round" stroke-linejoin="round" stroke-width=".932" d="M38.257 37.122s1.63 3.989 2.398 2.333c.375-.886.714-1.997.928-2.729 0 0 1.525 3.43 2.458 2.165.932-1.265.42-3.42.42-3.42"/><path fill="#003451" d="M31.3 37.285a2.33 2.33 0 1 0 1.143-4.518 2.33 2.33 0 0 0-1.143 4.518zm17.255-2.563a2.33 2.33 0 1 0 1.143-4.518 2.33 2.33 0 0 0-1.143 4.518z"/><path fill="#F57AFF" d="M24.81 34.406s-.187-.584-1.59-4.694c-2.61-7.656-8.33-6.978-14.78-11.252-2.368-1.565-5.046-3.003-4.667-.355.67 4.407 3.887 5.392 6.62 6.593-2.456-.778-3.68-.561-3.684.26-.002 1.578 2.474 4.024 6.292 5.545 0 0-2.595-.599-2.729.565-.263 2.235 3.278 4.236 6.09 4.17 3.109-.066 4.835.703 5.525 1.4 1.017.973 2.958-1.82 2.923-2.231v-.001z"/></svg>