<svg xmlns="http://www.w3.org/2000/svg" width="150" height="150" fill="none"><g fill="#E1477E"><path d="m62.375 82.297 9.083-2.505c1.88-.626 2.819-2.191 2.505-4.07-.313-1.879-2.192-2.818-4.071-2.505l-9.083 2.505c-1.88.626-2.819 2.192-2.506 4.07.314 1.879 2.193 3.131 4.072 2.505zM52.666 81.67c-.314-1.878-2.193-2.817-4.072-2.504L7.564 90.438c-1.878.626-2.818 2.191-2.505 4.07.314 1.879 2.193 2.818 4.072 2.505L50.16 85.74c1.88-.626 2.819-2.505 2.506-4.07zM83.36 76.974l12.527-3.444c1.88-.626 2.82-2.191 2.506-4.07-.313-1.879-2.192-2.818-4.072-2.505L81.793 70.4c-1.879.627-2.818 2.192-2.505 4.07.313 1.88 2.192 2.818 4.071 2.505z"/><path d="M144.406 56.314c-3.135-11.235-14.42-18.1-25.705-14.98-.627 0-.94.312-1.567.625-11.6-13.732-30.094-20.286-48.276-15.292-17.868 4.993-30.72 19.349-34.482 36.825-.314 2.185-1.881 3.745-4.075 4.37L14.627 72.23c-1.881.624-2.821 2.184-2.508 4.057.313 1.872 2.194 2.808 4.075 2.496l36.363-9.986c1.881-.625 2.822-2.185 2.508-4.057-.313-1.873-2.194-2.81-4.075-2.497l-2.194.624c-3.762.936-7.21-2.184-5.643-5.93C48.17 45.705 57.886 36.654 70.425 33.22c15.047-4.057 30.721.937 40.753 11.86-6.584 4.993-9.719 13.731-7.524 22.47 2.195 8.738 9.404 14.667 17.555 15.603-3.135 14.98-14.42 27.776-29.78 31.833-11.286 3.121-23.511.624-33.23-5.618-3.447-2.184-1.88-6.865 1.882-8.114l20.376-5.617c1.88-.624 2.82-2.185 2.507-4.057-.313-1.873-2.194-2.809-4.075-2.497l-39.498 10.923c-1.88.624-2.82 2.184-2.507 4.057.313 1.872 2.194 2.809 4.075 2.497h.313c1.881-.625 4.075 0 5.643 1.56 11.598 12.171 29.466 18.101 47.021 13.108 18.495-4.994 31.66-20.598 34.796-38.387.314 0 .94 0 1.254-.312 10.658-3.12 17.24-14.668 14.42-26.215zM124.03 76.912c-8.15 0-15.047-6.554-15.047-14.98s6.897-14.98 15.047-14.98 15.047 6.554 15.047 14.98-6.583 14.98-15.047 14.98z"/></g></svg>