<svg xmlns="http://www.w3.org/2000/svg" width="90" height="90" fill="none"><path fill="#FFABE2" d="M18.088 34.863c1.091 1.333.763 2.767.763 4.453.753-1.13 3.338-3.75 4.574-4.405.996-.527 1.356-.426 1.96.533.818 1.299 1.307 3.654 1.307 5.179 0 2.685 1.872 4.187 3.593 6.001 1.087 1.146 2.287 2.444 2.287 4.102v1.755c0 2.166.218 4.312.218 6.486 0 2.133.1 4.826-.484 6.873-.432 1.512-2.647 1.663-3.98 1.367-1.983-.44-3.92-2.515-5.325-3.92-.395-.395-1.673-2.54-2.19-1.634-.625 1.093-2.666 1.621-3.824 1.621-.796 0-.968-1.673-.968-2.396 0-1.3-.969-3.188-1.31-4.45-.483-1.79-.738-3.15-1.473-4.867-.879-2.05-2.692-3.824-3.328-5.941-.443-1.477-.626-2.842-.98-4.356l-.005-.025c-.265-1.135-.561-2.403-1.084-3.448-.375-.75-.946-1.397-1.282-2.166-.899-2.053-.642-4.556-1.755-6.534-.6-1.066-.762-1.242-.762-2.529 0-.886-.282-2.33.653-2.88.476-.28 1.326-.426 1.573-.92.24-.48 1.03-3.454 1.428-2.613.915 1.93 2.333 2.84 3.715 4.453.729.85 1.064 1.618 1.452 2.626.127.33.341.795.665.98 1.244.71 2.249 1.878 2.917 3.158.654 1.255.744 2.395 1.645 3.497z"/><path fill="var(--color-subheading, #282520)" fill-rule="evenodd" d="M28.078 61.505c.218.006.456.03.528.054.238.08.7.06.958-.04.512-.199.63-.428.672-1.312.035-.72.02-.815-.509-3.12-.554-2.422-1.233-5.007-1.679-6.394-.457-1.423-1.826-4.974-2.535-6.574a86.116 86.116 0 0 1-.616-1.426c-1.003-2.411-1.873-3.345-3.116-3.34-.372 0-.412.01-.652.155-.213.129-.297.22-.51.556-.494.779-1.146 2.086-1.398 2.803-.09.26-.177.473-.19.473-.022 0-1.571-3.115-2.662-5.348-.497-1.02-1.904-3.76-2.162-4.211a29.849 29.849 0 0 0-1.483-2.34c-.268-.38-.642-.943-.831-1.25-.416-.676-1.54-2.31-1.88-2.73-.618-.766-1.313-1.234-1.831-1.234-.067 0-.143-.007-.214-.018a.914.914 0 0 1-.196-.05 1.34 1.34 0 0 0-.424-.066c-.613 0-.94.468-.698 1.003.045.098.16.303.26.456.051.082.114.2.17.321.05.106.095.214.125.303.227.664.565 1.6.882 2.44.175.466.552 1.519.837 2.34a63.9 63.9 0 0 0 .823 2.25c.504 1.247 1.481 3.877 2.045 5.5.386 1.113.557 1.745 1.002 3.703.209.92.486 2.042.617 2.496l.42 1.458c.1.35.33 1.352.512 2.229a293.17 293.17 0 0 0 .48 2.262c.185.827.26 1.24.376 2.095.105.765.284 1.802.373 2.161.034.135.084.416.112.624.027.208.09.467.138.574.125.28.472.63.77.78l.334.166c.042.022.205.04.362.04.181 0 .366.032.508.089.258.103.48.11.719.025.226-.082.298-.153.679-.668.427-.578.848-1.419.848-1.693 0-.143.029-.232.104-.323.058-.07.24-.337.405-.594 1.007-1.57 1.616-2.466 1.917-2.824.018-.022.195.209.393.512.199.303.501.732.673.952.402.516.556.774 1.022 1.72.392.795 1.152 2.268 1.615 3.132.143.267.271.547.286.624.042.229.279.643.467.815.097.088.307.222.467.297.248.117.35.138.687.147zm-9.696-6.939c-.157.236-.289.429-.361.53-.155.213-.296.404-.313.423-.017.02-.065-.19-.106-.467-.115-.766-.242-1.38-.774-3.757-.538-2.404-.511-2.296-.903-3.588-.365-1.202-.486-1.67-.858-3.32-.36-1.595-.485-2.064-.837-3.114a159.144 159.144 0 0 0-1.875-5.107c-.226-.575-.405-1.052-.398-1.058.025-.026 1.038 2.12 1.414 2.995l.604 1.404c.121.282.523 1.134.893 1.894 1.8 3.705 2.049 4.209 2.251 4.731.046.118.09.237.148.394.304.817.485 1.14.835 1.495.629.637 1.523.915 2.176.678.297-.107.603-.423.726-.75.03-.08.106-.236.2-.417.074-.143.16-.3.244-.447.353-.617.66-1.295.838-1.851.055-.172.113-.327.13-.345.015-.018.223.484.46 1.114.978 2.589 1.524 4.075 1.7 4.623.194.604 1.014 3.479 1.014 3.556 0 .112-.484-.57-1.703-2.397-.783-1.176-1.236-1.544-1.938-1.575-.498-.022-.658.07-.92.528-.197.346-.45.697-1.053 1.46-.194.244-.65.91-1.013 1.477-.193.301-.403.624-.581.891z" clip-rule="evenodd"/><path fill="var(--color-subheading, #282520)" d="M36.728 44.686h.414L35.13 56.23c-.119.68.237 1.124.917 1.124h2.368c.68 0 1.213-.444 1.332-1.125l2.012-11.542h1.095c.622 0 1.155-.444 1.273-1.095l.296-1.746c.118-.622-.237-1.065-.858-1.065H42.47l.059-.296c.118-.83.385-1.184 1.243-1.303.71-.088 1.213-.503 1.332-1.183l.325-1.717c.119-.68-.266-1.125-.947-1.095-4.025.207-5.949 1.687-6.481 4.706l-.148.888h-.415c-.592 0-1.095.414-1.183 1.006l-.356 1.894c-.088.592.237 1.006.83 1.006zM58.424 36.577c.118-.68-.237-1.125-.918-1.125h-2.308c-.68 0-1.214.444-1.332 1.125l-1.095 6.097c-.03-.8-.592-2.19-3.049-2.19-3.521 0-4.705 2.84-5.297 6.096l-.858 4.943c-.592 3.255-.415 6.126 3.285 6.126 2.16 0 3.758-1.539 4.202-2.367l.207 1.302c.06.473.444.77.948.77h1.42c.68 0 1.214-.445 1.332-1.125l3.463-19.652zm-7.606 7.813c1.243 0 1.509.858 1.213 2.545l-.74 4.262c-.296 1.687-.858 2.545-2.101 2.545-1.302 0-1.302-.947-1.066-2.249l.859-4.854c.236-1.302.532-2.249 1.835-2.249zM66.736 40.483c-4.825-.236-7.429 1.628-8.11 5.387-.355 2.16.148 3.463 1.362 4.173-1.302.414-1.954 1.184-2.16 2.22-.238 1.332.562 2.101 1.568 2.367-2.338.77-3.404 2.575-3.73 4.41-.473 2.723.859 4.528 5.565 4.528 5.238 0 7.813-2.22 8.375-5.445.592-3.285-1.48-4.676-5.534-4.676h-1.036c-.651 0-.947-.326-.858-.859.118-.533.503-.799 1.154-.799h.8c3.61 0 6.362-1.332 6.954-4.617.237-1.45-.089-2.516-.888-3.285l1.214-.089c.621-.059 1.124-.503 1.213-1.124l.148-.83c.119-.62-.207-1.094-.858-1.124l-5.18-.237zm-1.45 3.582c1.45 0 1.598.888 1.39 2.1-.236 1.214-.68 2.132-2.13 2.132-1.421 0-1.599-.918-1.362-2.131.207-1.213.68-2.101 2.101-2.101zM63.124 56.76c1.776 0 2.19.503 1.983 1.628-.207 1.213-.947 1.865-2.812 1.865-1.657 0-2.279-.504-2.071-1.717.236-1.273 1.154-1.776 2.9-1.776zM74.958 36.577l-3.463 19.652c-.118.68.237 1.124.917 1.124h1.421c.503 0 1.006-.296 1.243-.77l.622-1.302c.148.83 1.213 2.368 3.374 2.368 3.699 0 4.883-2.87 5.475-6.126l.858-4.943c.592-3.255.414-6.097-3.107-6.097-2.457 0-3.552 1.391-3.878 2.19l1.095-6.096c.119-.68-.266-1.125-.947-1.125H76.26c-.68 0-1.184.444-1.302 1.125zm4.824 7.813c1.302 0 1.302.947 1.065 2.25l-.858 4.853c-.237 1.302-.533 2.25-1.835 2.25-1.243 0-1.51-.859-1.213-2.546l.74-4.262c.296-1.687.858-2.545 2.1-2.545z"/></svg>