<svg xmlns="http://www.w3.org/2000/svg" xmlns:xlink="http://www.w3.org/1999/xlink" width="159" height="159"><defs><path id="a" d="M.06.421h25.95v26.014H.06z"/><path id="c" d="M.281.699h26.012V71H.281z"/></defs><g fill="none" fill-rule="evenodd"><g transform="translate(0 44)"><mask id="b" fill="#fff"><use xlink:href="#a"/></mask><path fill="#0C5182" d="M13.005.421c7.183 0 13.005 5.823 13.005 13.005 0 7.186-5.822 13.012-13.008 13.009C5.821 26.432 0 20.61 0 13.426-.004 6.244 5.821.421 13.005.421" mask="url(#b)"/></g><path fill="#0C5182" d="M35.148 66.562c7.179 0 13.002 5.823 13.002 13.007 0 7.185-5.823 13.011-13.002 13.006-7.184-.002-13.005-5.821-13.005-13.006-.004-7.184 5.816-13.002 13.005-13.007"/><g transform="translate(44 88)"><mask id="d" fill="#fff"><use xlink:href="#c"/></mask><path fill="#0C5182" d="M13.289.699c7.181 0 13.004 5.827 13.004 13.01 0 7.186-5.823 13.01-13.004 13.005-7.187 0-13.008-5.821-13.008-13.005C.281 6.531 6.101.705 13.289.699M13.289 44.987c7.181 0 13.004 5.825 13.004 13.006 0 7.184-5.823 13.01-13.004 13.007C6.102 71 .281 65.177.281 57.993c0-7.181 5.82-13.006 13.008-13.006" mask="url(#d)"/></g><path fill="#0C5182" d="M79.43 110.848c7.18 0 13.004 5.821 13.004 13 0 7.185-5.824 13.014-13.004 13.01-7.187 0-13.005-5.826-13.005-13.01-.005-7.174 5.818-13 13.005-13M101.57 88.699c7.182 0 13.005 5.827 13.005 13.01 0 7.186-5.823 13.01-13.005 13.005-7.181 0-13.002-5.821-13.002-13.005-.005-7.178 5.817-13.004 13.002-13.01"/><path fill="#99A557" d="M57.289 44.421c7.181 0 13.004 5.823 13.004 13.005 0 7.186-5.823 13.012-13.004 13.009-7.187-.003-13.008-5.825-13.008-13.009 0-7.182 5.82-13.005 13.008-13.005M79.43 22.28c7.18 0 13.004 5.821 13.004 13.005 0 7.186-5.824 13.012-13.004 13.006-7.187 0-13.005-5.822-13.005-13.006-.005-7.179 5.818-13.005 13.005-13.005M101.57 44.421c7.182 0 13.005 5.823 13.005 13.005 0 7.186-5.823 13.012-13.005 13.009-7.181-.003-13.002-5.825-13.002-13.009-.005-7.182 5.817-13.005 13.002-13.005M123.714 66.562c7.181 0 13.007 5.823 13.007 13.007 0 7.185-5.826 13.011-13.007 13.006-7.182-.002-13.008-5.821-13.008-13.006-.005-7.184 5.821-13.002 13.008-13.007M145.854 88.699c7.186 0 13.002 5.827 13.007 13.01-.005 7.186-5.821 13.01-13.007 13.005-7.183 0-13.004-5.821-13.004-13.005-.005-7.178 5.818-13.004 13.004-13.01M101.57.137c7.182 0 13.005 5.821 13.005 13.004 0 7.186-5.823 13.013-13.005 13.013-7.181 0-13.002-5.829-13.002-13.013C88.563 5.963 94.385.139 101.57.137M123.829 115.877c.808 0 1.718.04 1.718-1.035 0-.868-.699-.994-1.342-.994h-1.347v2.029h.971Zm-.971 3.446h-.838v-6.177h2.37c1.379 0 1.999.604 1.999 1.708 0 1.096-.712 1.571-1.428 1.722l1.723 2.747h-.959l-1.679-2.747h-1.188v2.747Zm5.446-3.093c0-2.505-1.86-4.494-4.352-4.494-2.493 0-4.359 1.989-4.359 4.494s1.866 4.494 4.359 4.494c2.492 0 4.352-1.989 4.352-4.494Zm.845 0a5.204 5.204 0 0 1-5.197 5.191 5.2 5.2 0 0 1-5.194-5.191 5.198 5.198 0 0 1 5.194-5.194 5.202 5.202 0 0 1 5.197 5.194Z"/></g></svg>