<svg width="152" height="152" xmlns="http://www.w3.org/2000/svg"><path stroke="null" fill="#24292E" d="M76 3C34.562 3 1 36.563 1 78c0 33.188 21.469 61.219 51.281 71.156 3.75.656 5.157-1.594 5.157-3.562 0-1.781-.094-7.688-.094-13.969-18.844 3.469-23.719-4.594-25.219-8.813-.844-2.156-4.5-8.812-7.688-10.593-2.625-1.406-6.375-4.875-.093-4.969 5.906-.094 10.125 5.438 11.531 7.688 6.75 11.343 17.531 8.156 21.844 6.187.656-4.875 2.625-8.156 4.781-10.031-16.688-1.875-34.125-8.344-34.125-37.031 0-8.157 2.906-14.907 7.688-20.157-.75-1.875-3.376-9.562.75-19.875 0 0 6.28-1.968 20.624 7.688 6-1.688 12.376-2.532 18.75-2.532 6.376 0 12.75.844 18.75 2.532 14.344-9.75 20.626-7.688 20.626-7.688 4.124 10.313 1.5 18 .75 19.875 4.78 5.25 7.687 11.907 7.687 20.157 0 28.78-17.531 35.156-34.219 37.03 2.719 2.344 5.063 6.844 5.063 13.876 0 10.031-.094 18.094-.094 20.625 0 1.969 1.406 4.312 5.156 3.562C129.531 139.22 151 111.094 151 78c0-41.438-33.563-75-75-75h0z" clip-rule="evenodd" fill-rule="evenodd"/></svg>