<svg width="152" height="152" xmlns="http://www.w3.org/2000/svg"><g stroke="null"><path fill="#E24329" d="M76.808 128.143h0l19.827-60.987H57.01l19.798 60.987h0z" class="st3"/><path fill="#FCA326" d="M29.239 67.156h0l-6.038 18.529a4.106 4.106 0 001.486 4.588l52.122 37.87-47.57-60.987h0z" class="st4"/><path fill="#E24329" d="M29.239 67.156H57.01l-11.952-36.73c-.612-1.879-3.277-1.879-3.911 0l-11.908 36.73h0z" class="st3"/><path fill="#FCA326" d="M124.407 67.156h0l6.016 18.529a4.106 4.106 0 01-1.486 4.588l-52.129 37.87 47.599-60.987h0z" class="st4"/><path fill="#E24329" d="M124.407 67.156H96.636l11.93-36.73c.611-1.879 3.277-1.879 3.91 0l11.93 36.73h0z" class="st3"/><path fill="#FC6D26" class="st5" d="M76.808 128.143l19.827-60.987h27.772zM76.808 128.143L29.24 67.156H57.01z"/></g></svg>