<svg xmlns="http://www.w3.org/2000/svg" width="170" height="170"><defs><linearGradient id="a" x1=".252" x2=".992" y1=".351" y2=".888"><stop offset=".21" stop-color="#fe2857"/><stop offset="1" stop-color="#293896"/></linearGradient><linearGradient id="b" x1=".023" x2=".907" y1=".915" y2=".104"><stop offset="0" stop-color="#fe2857"/><stop offset=".01" stop-color="#fe2857"/><stop offset=".86" stop-color="#ff318c"/></linearGradient><linearGradient id="c" x1=".063" x2=".946" y1=".073" y2=".946"><stop offset=".02" stop-color="#ff318c"/><stop offset=".21" stop-color="#fe2857"/><stop offset=".86" stop-color="#fdb60d"/></linearGradient><linearGradient id="d" x1=".911" x2=".02" y1="-.001" y2=".919"><stop offset=".01" stop-color="#fdb60d"/><stop offset=".86" stop-color="#fcf84a"/></linearGradient></defs><path fill="url(#a)" d="m76.56 78.71-41.35-35a15 15 0 1 0-14.47 25.7h.15l.39.12 52.16 15.89a3.53 3.53 0 0 0 1.18.21 3.73 3.73 0 0 0 1.93-6.91l.01-.01z"/><path fill="url(#b)" d="M84.85 20.93A10.89 10.89 0 0 0 68 11.75L17.5 42.41a15 15 0 1 0 17.9 24l45.27-36.89.36-.3a10.93 10.93 0 0 0 3.82-8.29z"/><path fill="url(#c)" d="M158.29 87 81.67 13.21a10.91 10.91 0 1 0-14.81 16l.14.12 81.4 68.58a7.36 7.36 0 0 0 12.09-5.65 7.39 7.39 0 0 0-2.2-5.26z"/><path fill="url(#d)" d="M160.5 92.29a7.35 7.35 0 0 0-11.67-6l-92.71 45.3a15 15 0 1 0 15.48 25.59l85.73-58.84a7.35 7.35 0 0 0 3.17-6.05z"/><path d="M55 55h60v60H55V55z"/><g fill="#fff"><path d="M61.53 103.75h22.5v3.75h-22.5v-3.75zM60.59 70.47l1.67-1.58a1.88 1.88 0 0 0 1.47.87c.64 0 1.06-.45 1.06-1.32v-5.92h2.58v5.94a3.44 3.44 0 0 1-.92 2.63 3.52 3.52 0 0 1-2.57 1 3.84 3.84 0 0 1-3.29-1.62zM68.53 62.52h7.53v2.19h-5v1.43h4.49v2H71.1v1.49h5v2.2h-7.6l.03-9.31zM79.73 64.79h-2.8v-2.27h8.21v2.27h-2.81v7.09h-2.6v-7.09zM61.63 75.58h4.42a3.47 3.47 0 0 1 2.55.83 2.09 2.09 0 0 1 .61 1.52 2.18 2.18 0 0 1-1.45 2.09 2.27 2.27 0 0 1 1.86 2.29c0 1.69-1.31 2.69-3.55 2.69h-4.44v-9.42zm5 2.89c0-.52-.42-.8-1.18-.8h-1.29v1.64h1.25c.78 0 1.24-.27 1.24-.81l-.02-.03zm-.9 2.66h-1.57v1.73h1.62c.8 0 1.24-.31 1.24-.86-.02-.53-.4-.87-1.27-.87h-.02zM70.45 75.58h4.15a4.14 4.14 0 0 1 3.05 1 2.92 2.92 0 0 1 .83 2.18 3 3 0 0 1-1.93 2.89L78.79 85h-3l-1.89-2.84h-.87V85h-2.6l.02-9.42zm4 4.5c.87 0 1.4-.43 1.4-1.12 0-.75-.55-1.13-1.41-1.13h-1.39v2.27l1.4-.02z"/><path d="M82.09 75.51h2.5l4 9.44H85.8l-.67-1.69H81.5L80.83 85h-2.71l3.97-9.49zm2.28 5.73-1.05-2.65-1.06 2.65h2.11zM89 75.55h2.6v9.37H89v-9.37zM92.56 75.55H95l3.37 5v-5h2.57v9.37h-2.27l-3.53-5.14v5.14h-2.58v-9.37zM101.37 83.53l1.44-1.73a4.86 4.86 0 0 0 3 1.13c.71 0 1.08-.25 1.08-.65 0-.41-.3-.61-1.59-.91-2-.46-3.53-1-3.53-2.93 0-1.74 1.38-3 3.63-3a5.88 5.88 0 0 1 3.85 1.25L108 78.47a4.56 4.56 0 0 0-2.62-.92c-.63 0-.94.25-.94.6 0 .43.32.62 1.63.91 2.15.47 3.48 1.17 3.48 2.92 0 1.91-1.51 3-3.78 3a6.56 6.56 0 0 1-4.4-1.45z"/></g><path fill="none" d="M-5-5h180v180H-5V-5z"/></svg>