<svg width="152" height="152" xmlns="http://www.w3.org/2000/svg"><g stroke="null" fill-rule="evenodd"><path d="M46.267 43.283c-2.72.594-3.363 1.915-3.369 6.932-.007 5.737.454 6.659 3.495 6.998 2.832.317 32.178.116 32.957-.225 1.513-.662 2.201-2.235 2.344-5.36.22-4.785-.62-7.226-2.812-8.185-.84-.367-30.987-.516-32.615-.16m50.877-.046c-1.24.254-3.07 1.864-3.477 3.062-.4 1.173-.304 6.988.136 8.26.828 2.397 1.651 2.72 6.937 2.72 6.854 0 6.78.068 6.873-6.39.083-5.74-.146-6.395-2.575-7.361-1.015-.404-6.375-.602-7.894-.29m-50.56 26.204c-3.024.246-3.68 1.503-3.686 7.066-.005 4.745.575 6.487 2.36 7.082.81.27 56.067.41 58.51.147 3.413-.366 3.88-1.225 3.88-7.15 0-5.85-.478-6.767-3.717-7.138-1.57-.18-55.141-.186-57.348-.007m-.513 26.534c-2.679.325-3.178 1.426-3.172 6.983.004 3.748.077 4.187.887 5.373 1.181 1.729 1.694 1.798 12.766 1.735 10.166-.059 9.874-.024 11.07-1.321 1.15-1.248 1.174-1.365 1.174-5.787 0-5.216-.319-6.279-2.053-6.841-.723-.235-18.881-.36-20.672-.142m38.816-.011c-2.653.358-3.34 1.693-3.423 6.64-.069 4.15.026 4.544 1.438 5.976 1.505 1.528.806 1.442 11.717 1.442h9.497l.923-.372c2.432-.98 2.658-1.627 2.575-7.366-.098-6.89.912-6.363-12.289-6.406-5.266-.017-9.964.022-10.438.086" fill="#f5f6f6"/><path d="M10.086-1.832c-.173.07-.66.209-1.083.31-.424.1-1.029.387-1.345.637-.316.25-.757.538-.979.64-.222.1-.48.35-.573.555-.108.235-.555.546-1.227.85-1.284.582-1.55.812-2.022 1.743-.243.48-.53.79-.853.924-.88.365-1.271.808-1.887 2.141-.334.724-.712 1.356-.838 1.405-.127.048-.313.285-.412.526-.1.24-.377.581-.615.758-.435.322-.757 1.038-1.093 2.434-.258 1.07-.26 129.913-.002 130.992.327 1.366.622 1.998 1.206 2.579 1.103 1.097 1.256 1.315 1.748 2.483.585 1.39.796 1.646 1.744 2.127.526.267.792.53 1 .995.376.831.76 1.172 1.894 1.679.518.232 1.118.59 1.334.795.9.86 2.16 1.758 2.747 1.96.94.325 132.49.325 133.43 0 .609-.21 1.32-.721 2.41-1.737.29-.27.995-.702 1.567-.962 1.237-.56 1.617-.892 1.998-1.735.21-.464.475-.728 1.001-.995.961-.488 1.15-.725 1.813-2.282.448-1.05.746-1.5 1.41-2.118.498-.464.96-1.074 1.13-1.491.45-1.103.45-132.481.001-133.588-.157-.388-.581-.998-.942-1.356-1-.992-1.107-1.146-1.66-2.411-.601-1.376-.904-1.741-1.763-2.129-.464-.209-.728-.475-.995-1-.47-.928-.702-1.123-2.155-1.81-.731-.347-1.247-.693-1.306-.878-.053-.168-.153-.305-.222-.305-.07 0-.478-.28-.907-.622-.47-.374-1.089-.695-1.552-.804a12.2 12.2 0 01-1.13-.32c-.455-.174-130.441-.164-130.872.01m68.796 45.275c2.192.959 3.031 3.4 2.812 8.185-.143 3.125-.831 4.698-2.344 5.36-.78.34-30.125.542-32.957.225-3.041-.34-3.501-1.261-3.495-6.998.006-5.017.648-6.338 3.37-6.932 1.627-.356 31.773-.207 32.614.16m26.156.085c2.429.966 2.658 1.621 2.575 7.361-.092 6.458-.019 6.39-6.873 6.39-6.672 0-7.307-.615-7.292-7.064.01-4.236.276-4.947 2.405-6.422 1.204-.834 7.311-1.01 9.185-.265m-1.107 25.92c3.239.372 3.716 1.29 3.716 7.139 0 5.925-.466 6.784-3.879 7.15-2.443.262-57.7.124-58.51-.147-1.785-.595-2.365-2.337-2.36-7.082.006-5.563.662-6.82 3.685-7.066 2.207-.18 55.779-.173 57.348.007M66.742 96.118c1.734.562 2.053 1.625 2.053 6.841 0 4.422-.024 4.539-1.174 5.787-1.196 1.297-.904 1.262-11.07 1.32-11.072.064-11.585-.005-12.766-1.734-.81-1.186-.883-1.625-.887-5.373-.006-5.557.493-6.658 3.172-6.983 1.791-.217 19.949-.093 20.672.142m38.952.057c1.728.574 1.845.947 1.92 6.11.082 5.739-.144 6.386-2.576 7.366l-.923.372h-9.497c-10.91 0-10.212.086-11.717-1.442-1.412-1.432-1.507-1.825-1.438-5.976.083-4.947.77-6.282 3.423-6.64 1.91-.259 19.948-.077 20.808.21" fill="#333c43"/></g></svg>