<svg xmlns="http://www.w3.org/2000/svg" xmlns:xlink="http://www.w3.org/1999/xlink" width="80" height="80" version="1.0" viewBox="0 0 60 60"><style>@namespace xlink&quot;http://www.w3.org/1999/xlink&quot;;</style><defs><path id="brace" d="M24.9 36.3c-2.7 0-4.7-.7-6-1.9-1.3-1.3-2-3.3-2-6.1v-4.9c0-1.3-.3-2.3-.9-3-.6-.7-1.6-1-3-1h-1.2v-3.7H13c.7 0 1.3-.1 1.8-.2.5-.2.9-.4 1.2-.7.3-.3.5-.7.7-1.2.1-.5.2-1.1.2-1.7V8.5c0-1.3.2-2.5.5-3.5s.8-1.9 1.4-2.5c.7-.7 1.5-1.2 2.5-1.5C22.4.7 23.6.5 25 .5h1.6v3.6h-1.2c-.6 0-1.2.1-1.7.2-.5.2-.9.4-1.3.7-.4.3-.6.8-.8 1.3-.2.5-.3 1.2-.3 2v3.4c0 .9-.1 1.8-.2 2.5-.2.7-.4 1.2-.7 1.7-.3.5-.7.8-1.3 1.1-.5.2-1.1.4-1.8.5 1.4.2 2.4.7 3.1 1.6.7.9 1 2.3 1 4.2v4.9c0 .8.1 1.5.3 2.1.2.5.5 1 .8 1.3.4.3.8.6 1.3.7.5.1 1.1.2 1.7.2h1.2v3.7h-1.8z"/><path id="sword" d="m58.8 53.5-.8-.1c-.5-.1-.9.2-1 .7l-7.8-1.5.6-2.8.8.2c.2 0 .4-.1.5-.3l.1-.6c0-.2-.1-.4-.3-.5l-2.2-.6c-.2 0-.4.1-.5.3l-.1.6v.3l-.5 2.3C16.7 45 12.1 39.6 6.5 31.1 3.1 47.6 33.4 52.9 46.9 55.7l-.4 1.9-.8-.2c-.2 0-.4.1-.5.3l-.1.6c0 .2.1.4.3.5l2.1.4c.2 0 .4-.1.5-.3l.1-.6v-.2l.6-2.9 7.9 1.6v.1c-.1.5.2.9.7 1l.7.1c.5.1.9-.2 1-.7l.5-2.7c.1-.6-.2-1-.7-1.1z"/></defs><circle cx="50%" cy="50%" r="50%" style="fill:#f06"/><g style="fill:#fff" transform="matrix(.65 0 0 .65 10.4 9.75)"><use xlink:href="#sword"/><use xlink:href="#brace"/><g transform="matrix(-1 0 0 1 60 0)"><use xlink:href="#sword"/><use xlink:href="#brace"/></g></g></svg>