<svg xmlns="http://www.w3.org/2000/svg" xmlns:xlink="http://www.w3.org/1999/xlink" width="375" height="375"><defs><linearGradient id="a" x1="-.97" x2="1.915" y1=".05" y2=".947"><stop offset=".01" stop-color="#c19d3a"/><stop offset="1" stop-color="#786124"/></linearGradient><linearGradient xlink:href="#a" id="b" x1="44.31" x2="54.67" y1="236.36" y2="267.4"/><linearGradient xlink:href="#a" id="c" x1="162.62" x2="205.42" y1="-5.22" y2="122.98"/><linearGradient xlink:href="#a" id="d" x1="166.43" x2="224.05" y1="89.41" y2="176.82"/><linearGradient xlink:href="#a" id="e" x1="179.91" x2="275.73" y1="80.85" y2="246.39"/><linearGradient xlink:href="#a" id="f" x1="162.62" x2="226.06" y1="265.01" y2="278.6" gradientTransform="translate(7.04 -13.2)"/><linearGradient xlink:href="#a" id="g" x1="339.88" x2="206.79" y1="311.72" y2="275.48" gradientTransform="translate(7.04 -13.2)"/></defs><path fill="#775e25" d="m5 319.85 73.2 1.13-.34-19.81 10.24-15.02 31.9 8.98-31.02 23.45-2.73 1.73 284.86.71-5.92-11.96-32.22-29.61-28.24-30.26-25-29-33-53-9-7-17-25-11-7-9-13-10-16-3-1-23-43-13.81-4.99-10.99 9.6-.3 10.79-2.75 2.63 4.59 91.96-2.83 5.32 3.67 92.84L33.13 239.6l-9.97 5.12-.07 2.7 3.47 3.7 17.57 10.39.79 3.63 5.31 1.95.79 3.62 17.62 8.59-37.46 30.47-8.9-1.14L5 319.85z"/><path fill="url(#a)" d="m150.92 50.2 19.8 219.33-28.41-6.19-3.67-92.84 2.83-5.32-4.59-91.96 2.75-2.63.3-10.79 10.99-9.6z"/><path fill="url(#b)" d="m68.64 279.3 8.87 2.05-25.79 39.22L5 319.85l17.28-11.22 8.9 1.14 37.46-30.47z"/><path fill="url(#c)" d="m190.73 99.19-3-1-10 52-15.42 26.22 4.34 48.03 32.81-25.03 18.27-23.22 29-9-9-7-17-25-11-7-9-13-10-16z"/><path fill="#775e25" d="m187.73 98.19-10 52-15.42 26.22L150.92 50l13.81 5.19 23 43z"/><path fill="url(#d)" d="m166.65 224.44 32.81-25.03 18.27-23.22 29-9 33 53-28 12-47.19 9.37-33.82 27.97-2.11-20.76-1.96-24.33z"/><path fill="url(#e)" d="m170.72 269.53 33.82-27.97 47.19-9.37 28-12 25 29 28 30-56-2-40-8-66.01.34z"/><path fill="url(#f)" d="m176.04 315.24 14.3-27.69 22.98-13.12 22.08 6.55-14.87 22.35-.82 10.46-37.63 6.82-15.35-.12 9.31-5.25z"/><path fill="url(#g)" d="m219.7 313.74.83-10.46 14.86-22.35 11.2 11.82 6.9 19.87 5.24 8.07-76.26-.1 37.23-6.85z"/></svg>