<svg viewBox="0 0 260 260" fill="none" xmlns="http://www.w3.org/2000/svg"><circle cx="130" cy="130" r="130" fill="#0284C7"/><path d="M56 193h20.053c8.34 0 11.357-3.887 12.067-13.217l4.081-61.42c.71-9.135.178-21.574.178-21.574h.355s3.726 13.8 6.92 21.574l20.941 50.924h18.81l20.94-50.924c3.195-7.774 6.921-21.38 6.921-21.38h.355s-.532 12.245.178 21.38l4.259 61.42c.709 9.33 3.549 13.217 11.889 13.217H204v-21.575h-5.501c-2.485 0-3.727-1.555-3.904-4.276L186.432 55h-24.135l-25.909 65.696c-3.016 7.969-6.211 18.465-6.211 18.465h-.354s-3.195-10.496-6.211-18.465L97.702 55H73.569l-8.163 112.149c-.177 2.721-1.42 4.276-3.904 4.276H56V193z" fill="#fff"/></svg>
