<svg width="152" height="152" xmlns="http://www.w3.org/2000/svg"><path d="M-4 75.1V156h161.8V-5.8H-4v80.9zm63.167-29.642c5.89 1.133 11.034 3.851 15.403 8.09 3.98 3.851 6.57 8.252 8.22 14.012.614 2.136.744 3.3.744 7.54s-.13 5.404-.744 7.54c-1.65 5.76-4.24 10.16-8.22 14.012-6.18 5.986-13.591 8.834-22.102 8.446-13.591-.615-24.529-9.805-27.894-23.461-.744-2.977-.744-10.097 0-13.074 2.233-9.125 7.863-16.342 15.76-20.322 2.62-1.327 6.05-2.46 8.64-2.912 2.556-.42 7.636-.356 10.193.13zm45.627 1.942c5.243 2.2 9.482 9.773 11.1 19.772.615 3.786.615 12.07 0 15.856-1.65 10.226-5.987 17.733-11.488 19.934-4.207 1.65-9.579-1.068-12.717-6.44-3.69-6.342-5.308-13.882-4.984-23.364.259-7.41 1.36-12.329 4.013-17.668 3.495-7.055 8.996-10.194 14.076-8.09zm21.843 4.271c.874 1.521 1.91 5.728 2.59 10.614.387 2.622.517 6.116.517 12.815 0 9.708-.324 13.43-1.715 19.287-.712 3.074-1.683 5.145-2.783 5.857-2.071 1.359-4.207-3.883-5.372-13.17-.55-4.499-.55-19.45 0-23.947.906-7.055 2.265-11.715 3.883-12.977.712-.55.906-.582 1.489-.194.388.26 1.003 1.036 1.391 1.715z" stroke="null" stroke-width=".1"/></svg>