<svg xmlns="http://www.w3.org/2000/svg" xml:space="preserve" id="Layer_1" x="0" y="0" style="enable-background:new 0 0 103.93 94.19" version="1.1" viewBox="0 0 103.93 94.19"><style>.st0{fill:#3f4ea1}</style><path d="M20.89 82.92c0-1.77-.79-2.68-2.56-2.68-1.21 0-2.41.26-3.17.64.15.38.34.94.34 1.73v10.82h-4.56V82.92c0-1.77-.83-2.68-2.56-2.68-1.09 0-1.92.15-2.83.42v12.78H1.03V77.72c2.34-.9 5.09-1.47 7.58-1.47 1.96 0 3.62.49 4.64 1.32 1.51-.68 3.24-1.32 5.69-1.32 4 0 6.52 1.55 6.52 6.48v10.71H20.9V82.92zM34.04 86.28v.08c.34 2.37 2.68 3.58 4.94 3.58 2.26 0 3.96-.53 5.62-1.51v3.85c-1.55 1.09-3.81 1.55-6.07 1.55-5.47 0-8.9-3.36-8.9-8.6 0-5.54 3.51-8.97 8.22-8.97 5.24 0 7.28 3.47 7.28 7.92v2.11H34.04zm6.87-2.71c-.04-2.07-1.02-3.58-3.17-3.58-1.96 0-3.24 1.39-3.66 3.58h6.83zM47.61 76.63h2.53v-4.15h4.52v4.15h4.79v3.77h-4.79v6.75c0 1.92.9 2.53 2.26 2.53 1.13 0 2.11-.34 3.09-.94v4.15c-1.21.64-2.64.94-4.34.94-2.9 0-5.54-1.4-5.54-5.47V80.4H47.6v-3.77zM61.9 76.63h2.53v-4.15h4.52v4.15h4.79v3.77h-4.79v6.75c0 1.92.9 2.53 2.26 2.53 1.13 0 2.11-.34 3.09-.94v4.15c-1.21.64-2.64.94-4.34.94-2.9 0-5.54-1.4-5.54-5.47V80.4H61.9v-3.77zM83 93.44h-4.52V67.81H83v25.63zM91.82 86.28v.08c.34 2.37 2.68 3.58 4.94 3.58 2.26 0 3.96-.53 5.62-1.51v3.85c-1.55 1.09-3.81 1.55-6.07 1.55-5.47 0-8.9-3.36-8.9-8.6 0-5.54 3.51-8.97 8.22-8.97 5.24 0 7.28 3.47 7.28 7.92v2.11H91.82zm6.87-2.71c-.04-2.07-1.02-3.58-3.17-3.58-1.96 0-3.24 1.39-3.66 3.58h6.83zM56.21 4.43s11.85 4.53 11.85 24.44v16.8S66.7 59.76 80.42 59.76s12.36-14.4 12.36-14.4v-17.1c.05-2.85-.22-9.22-4.19-15.69-1.2-1.96-3.96-6.33-9.07-9.07-10.39-5.56-21.94.21-23.31.93z" class="st0"/><path d="M27.47 7.98c1.66.6 4.52 1.91 7.08 4.68 4.34 4.71 4.71 10.32 4.76 11.96l-.03 21.04c-.07.56-.81 7.44 4.14 11.49 3.18 2.6 6.93 2.6 8.22 2.6 13.71 0 12.36-14.4 12.36-14.4V29.02c.05-1.78-.04-4.23-.66-7.04-1.02-4.63-2.9-7.78-3.3-8.42-.87-1.42-4.55-7.52-11.57-9.91-10.59-3.62-20.14 3.65-21 4.33z" class="st0"/><path d="M35.83 25.35V47.4s-.01 11.61-12.36 12.36c0 0-11.24.38-12.36-12.36V25.35S11 13.72 23.47 12.99c.01.01 11.42-.21 12.36 12.36z" style="fill:#2b3087"/></svg>