<svg xmlns="http://www.w3.org/2000/svg" width="24" height="24"><g fill="none" fill-rule="evenodd"><path d="M0 0h24v24H0z"/><path fill="#656565" fill-rule="nonzero" d="M12 21a9 9 0 1 0 0-18 9 9 0 0 0 0 18Zm0 2C5.925 23 1 18.075 1 12S5.925 1 12 1s11 4.925 11 11-4.925 11-11 11Z"/><path fill="#656565" fill-rule="nonzero" d="m15.268 8.887-3.206-1.85a.125.125 0 0 0-.124 0L8.742 8.88l3.268 1.886 3.258-1.88Zm1.062 1.696L13 12.505v3.918l3.268-1.887a.125.125 0 0 0 .062-.108v-3.845ZM11 16.423v-3.93l-3.33-1.922v3.857c0 .044.024.086.062.108L11 16.423Zm6.268-8.691a2.125 2.125 0 0 1 1.062 1.84v4.856c0 .759-.405 1.46-1.062 1.84l-4.206 2.428c-.657.38-1.467.38-2.124 0l-4.206-2.428a2.125 2.125 0 0 1-1.062-1.84V9.572c0-.759.405-1.46 1.062-1.84l4.205-2.428a2.125 2.125 0 0 1 2.126 0l4.205 2.428Z"/></g></svg>
