<svg xmlns="http://www.w3.org/2000/svg" width="200" height="200"><defs><linearGradient id="a" x1="5.205%" x2="100%" y1="62.5%" y2="52.155%"><stop offset="0%" stop-color="#F2B3C4"/><stop offset="100%" stop-color="#6DAB49"/></linearGradient><linearGradient id="b" x1="100%" x2="0%" y1="62.5%" y2="52.791%"><stop offset="0%" stop-color="#963197"/><stop offset="100%" stop-color="#635EF2"/></linearGradient><linearGradient id="c" x1="0%" x2="100%" y1="61.161%" y2="51.324%"><stop offset="0%" stop-color="#669742"/><stop offset="100%" stop-color="#F20805"/></linearGradient><linearGradient id="d" x1="96.58%" x2="0%" y1="60.936%" y2="51.725%"><stop offset="0%" stop-color="#D7FCB9"/><stop offset="100%" stop-color="#F2B703"/></linearGradient><linearGradient id="e" x1="100%" x2="0%" y1="3.17%" y2="43.318%"><stop offset="0%" stop-color="#F2B3C4"/><stop offset="100%" stop-color="#2DA600"/></linearGradient><linearGradient id="f" x1="3.294%" x2="100%" y1="100%" y2="50%"><stop offset="0%" stop-color="#F2B703"/><stop offset="100%" stop-color="#A949AB"/></linearGradient></defs><g fill="none" fill-rule="evenodd"><path fill="url(#a)" d="M75 125v50H-25z" transform="rotate(-90 25 150)"/><path fill="url(#b)" d="M-25 25 75 75H-25z" transform="rotate(-90 25 50)"/><path fill="url(#c)" d="M225 25v50H125z" transform="rotate(90 175 50)"/><path fill="url(#d)" d="m125 125 100 50H125z" transform="rotate(90 175 150)"/><path fill="url(#e)" d="m149.593.407-100 100 .22-100z" transform="rotate(-90 99.593 50.407)"/><path fill="url(#f)" d="M150.22 100.22v100h-100z" transform="rotate(-90 100.22 150.22)"/></g></svg>