<svg xmlns="http://www.w3.org/2000/svg" width="128" height="128"><path fill="#3559c7" d="M96 14.006a17.56 17.56 0 0 0-11.76 5 .9.9 0 0 0-.17.17l-20.16 19.83-20.41-19.87c-.09 0-.13-.13-.22-.17l-.09-.09A17.2 17.2 0 0 0 14 30.676v66.62a17.09 17.09 0 0 0 17.16 16.71 17.56 17.56 0 0 0 12.21-5 .9.9 0 0 0 .17-.17l20.33-20 20.2 20.08c.09 0 .13.13.22.17l.08.09a17.1 17.1 0 0 0 12 4.87c9.34 0 17.42-7.44 17.59-16.67v-66.66c-.05-9.23-8.58-16.71-17.96-16.71zm7.62 81.37c0 3.72-3.48 6.71-7.17 6.71a6.74 6.74 0 0 1-4.73-2c-.09-.08-.14-.17-.22-.21l-.09-.09-45.22-43.22-7.39 7.27 17.73 17.61L36 100.006l-.13.12a6.8 6.8 0 0 1-4.67 1.88 6.7 6.7 0 0 1-6.73-6.71v-62.66a6.72 6.72 0 0 1 11.47-4.74c.08.08.13.17.21.21l.09.09 45.66 42.81 7.38-7.27-17.9-17.42 20.29-18.31.13-.12a6.82 6.82 0 0 1 4.65-1.88c3.74 0 7.17 3 7.17 6.71v62.66z" class="cls-1"/></svg>