<svg xmlns="http://www.w3.org/2000/svg" xml:space="preserve" x="0" y="0" style="enable-background:new 0 0 64.2 64.2" version="1.1" viewBox="0 0 64.2 64.2"><style>.st0{fill:#0477a4}</style><path d="M25.5 4.9c-2 10.5-10.2 18.6-20.6 20.7 6.2.6 12.2 2.4 17.7 5.2 3.1-2.3 5.9-5.1 8.2-8.2-2.9-5.5-4.7-11.5-5.3-17.7z" class="st0"/><path d="M64.2 26c-14.4 0-26-11.6-26-26H26c0 21.1 17.1 38.1 38.2 38.2V26zM0 38.2c14.4 0 26 11.6 26 26h12.2C38.1 43.1 21.1 26 0 26v12.2z" class="st0"/><path d="M38.6 59.3c2-10.4 10.2-18.6 20.6-20.6-6.2-.6-12.2-2.4-17.7-5.2-3.1 2.3-5.9 5.1-8.2 8.2 3 5.4 4.7 11.4 5.3 17.6z" class="st0"/></svg>
