<svg xmlns="http://www.w3.org/2000/svg" width="120" height="120" fill="none"><path fill="#900" d="M0 120h120V0H0v120Z"/><path fill="#fff" d="M112.117 53.874c-1.061.712-2.192.818-2.228.818-.035 0-.071.036-.071.072 0 .035 0 .07.036.106.035.036 2.899 2.525 3.182 5.903.318 3.45-.212 5.37-1.945 7.006-1.379 1.316-3.394 1.493-4.136 1.316-.177-.036-.213-.072-.213-.107-.106-.427.531-.89 1.309-1.423.176-.106.353-.249.53-.355.99-.711 1.52-1.885 1.202-2.525-.106-.213-.283-.249-.495-.249-.177 0-.353.071-.566.142-.389.107-.813.25-1.025 0-.247-.249-.141-.462.071-.889.177-.355.389-.782.424-1.387.106-1.315-.071-4.765-1.909-5.156-.071 0-.142 0-.212.036-.177.142-.177.569-.177 1.244 0 .89-.035 2.063-.53 2.845-.778 1.21-2.016 2.134-2.582 2.134-.141 0-.212-.036-.282-.107-.071-.107-.036-.391.07-.818.212-.995.566-2.845.036-6.294-.177-1.21-.92-2.525-1.591-3.77-.672-1.209-1.309-2.382-1.45-3.378-.248-1.849-.035-2.631.99-3.414.601-.462.707-.889.707-1.173 0-.285-.141-.818-.636-.996-.036 0-.036 0-.071-.035-.248-.072-.672-.107-1.131-.107-1.945.035-6.506.071-9.724-4.339-2.616-3.556-2.793-6.898-2.298-10.845v-.036c0-.071-.283-1.53-1.52-2.667-.601-.534-1.202-.854-1.627-1.067-.247-.142-.53-.249-.53-.356 0 0 0-.07.07-.106.319-.32 1.415-.783 2.935-.57a6.31 6.31 0 0 1 1.945.64c.035.036.07 0 .106-.035.035-.035 3.005-3.556 7.955-3.165 2.97.214 5.799 3.13 5.87 6.295.07 3.165-1.379 4.836-2.652 5.263-1.025.355-1.98.32-2.546-.072-.247-.177-.424-.426-.424-.71 0-.25.212-.392.636-.605.707-.356 1.804-.925 1.945-2.916.07-1.031-.283-2.063-.955-2.774-.46-.498-1.272-1.102-2.616-1.031-1.733.07-3.147.747-4.102 1.991-1.202 1.565-1.626 4.019-1.166 6.828.672 4.09 4.596 6.934 8.91 6.472 2.545-.249 4.914-1.707 6.718-4.054 1.697-2.205 2.687-5.05 2.722-7.788.071-6.828-3.854-13.869-12.835-14.224-8.591-.32-13.93 5.05-16.37 8.25-1.52 1.991-3.111 5.796-4.278 8.89.53-.107 2.192-.32 3.677.427 1.52.747 3.288 2.596 2.97 3.378-.07.213-.53.107-1.202-.071-.884-.249-2.121-.178-3.5.036-2.37.32-3.324.782-3.607 1.03l-3.217-1.99c.46-2.028 2.51-10.527 7.637-16.11 5.268-5.725 11.597-7.61 17.183-7.645 3.041-.036 5.834.427 8.132.96.283.071.531.107.778.178 2.192.498 4.491.96 6.117.533.884-.213 1.626-.569 2.192-.853.354-.178.707-.356.778-.32 0 0 .035.035.035.07.071.357-.247 1.494-1.273 2.881-.636.89-1.449 1.387-2.015 1.778-.53.32-.884.57-.884.925 0 .178.177.498.495 1.067.99 1.778 3.041 5.512 2.793 10.775-.388 8.053-4.19 11.505-6.735 13.817l-.018.016-.318.284h-.035c-1.697 1.956-1.485 3.77-.99 4.908.742 1.742 2.369 3.2 4.455 3.947 1.186.421 2.476.565 3.427.671l.038.005c.707.07 1.414.142 1.485.32.247.569-.425 1.35-1.874 2.276Z"/><path fill="#fff" d="M106.884 88.617c2.192-.284 4.773-2.24 5.551-6.827.353-2.134-.212-4.481-1.379-6.33-1.131-1.6-2.758-2.667-4.561-3.058h-.035c-2.511-.605-6.153-.285-10.325 4.338-.141.142-.6.818-.884 1.387-.106-.32-.212-.676-.353-1.102-.566-1.707-1.733-4.552-4.102-8.428-1.308-2.134-2.368-3.52-3.323-4.765l-.017-.023c-.913-1.2-1.72-2.262-2.387-3.57-1.273-2.453-1.52-6.613-1.061-7.36.07-.071.106-.107.177-.107.53.071.636.534.813 1.494.212 1.138.566 2.845 1.91 5.12 1.166 1.992 2.015 2.916 2.898 3.912l.02.022c.702.776 1.439 1.591 2.35 2.965 2.085 3.058 2.58 4.48 2.58 4.48l.142.392-.07-.427c-.036-.035-.885-5.796-.036-11.735.454-3.053 1.458-5.553 2.13-7.224l.027-.066c.495-1.209.777-1.956.6-2.24-.07-.142-.212-.249-.353-.249h-.035c-.53 0-1.273.818-2.192 1.885-.319.32-.601.675-.92.995-1.485 1.6-2.51 3.379-2.652 3.628-.282-.071-2.404-.676-2.616-5.263-.175-3.104.101-4.773.347-6.257l.007-.038c.106-.71.247-1.386.283-2.169 0-.249-.036-.427-.177-.462-.53-.142-2.086 1.814-2.864 3.485-.495.995-.601 1.813-.707 2.382-.071.427-.106.747-.283.818-.035.036-.106 0-.177-.035-.46-.285-1.237-1.636-1.45-4.09-.07-.818-.07-1.6-.07-2.204 0-.996 0-1.672-.319-1.85a.569.569 0 0 0-.53.036c-.46.284-.99 1.173-1.45 2.49-.353 1.03-.848 2.808-1.025 5.369-.353 4.872-.035 8.214 0 8.641-.283 0-1.874.107-3.854.747-1.944.64-5.55 2.24-5.374 3.13.106.462.813.355 1.697.213.566-.072 1.202-.178 1.768-.143 1.096.071 2.228.64 2.546.783-.319.142-1.485.817-3.253 2.489-1.379 1.316-2.935 2.81-2.157 3.912.248.355.849.106 1.733-.32 1.768-.818 4.667-2.134 8.45-.676 4.243 1.636 6.788 4.16 9.157 9.281.566 1.387 1.026 3.023 1.38 4.837.848 4.622-.107 10.383-4.35 15.646-2.404 2.987-3.535 3.947-5.303 5.441-5.516 4.623-8.698 5.37-8.98 4.73-.248-.534 3.818-2.81 7.035-5.583 5.02-4.374 7.39-7.29 7.39-7.29s-4.809 3.485-9.193 3.093c-2.546-.249-4.278-2.382-4.455-2.169-.566.64.354 2.347.637 2.952.318.569.954 1.173.954 1.173s-.177.356-1.697.391c-1.308 0-1.697-.782-1.874-.64-.283.25-.07 1.245.92 2.241.99.96 1.944 1.315 1.944 1.315s-1.485.534-3.819.534c-1.838-.036-3.712-.889-4.101-.462-.672.711.53 1.422 1.344 2.275.813.854 1.308.854 1.308.854s-.212.996-2.687 1.387c-2.688.426-4.915-1.103-5.127-.214-.283 1.032 2.864 3.663 6.612 4.019 3.677.32 6.824-1.387 6.824-1.387s-.036.818-1.627 2.631c-1.556 1.778-2.333 1.672-2.05 2.063.6.782 2.97.427 11.066-7.041 0 .178.035.355.035.533.46 7.61 7.956 5.868 7.92 5.406-.035-.392-1.414-.356-2.616-1.245-1.591-1.174-1.344-1.778-1.344-1.778s.354.32 1.309.391c.954.071 1.485.071 1.52-.32.035-.285-2.546-.533-3.253-3.236-.389-1.565.212-2.952.99-3.912C94.544 94.2 95.605 89.4 96.1 86.164v-.036c.106-.676.495-4.232 2.05-6.543 0 0 .036-.036.036-.071 1.131-1.814 2.829-3.52 5.374-4.019.354-.07.672-.106.955-.106H104.727c2.298.213 3.076 1.209 3.606 2.276.743 1.422.566 3.236-.388 4.73-.177.284-.46.533-.708.746-.282.284-.53.498-.495.711.036.178.142.32.319.427.318.142.707.107 1.131-.107l.141-.07c.319-.179.602-.32.708-.25.035 0 .07.036.07.107l.002.01c.07.497.162 1.139-1.699 2.621a5.467 5.467 0 0 1-1.662.89c-.353.106-.601.213-.671.39-.036.107 0 .214.035.32.141.285.636.463 1.273.463.141 0 .318 0 .495-.036Z"/><path fill="#fff" d="M111.48 105.224c0-.071.036-.106.036-.142.424-1.458.53-3.307-.036-5.299-.318-1.209-1.414-3.911-5.339-6.472-2.333-1.529-5.056-2.276-5.374-2.418.813-1.885 2.263-2.24 2.298-2.454.036-.213-1.273-.746-2.369-.497-.954.249-1.944 1.173-2.298 1.742-.177.605-.247 1.138-.848 2.845 1.06.498 3.783 1.707 5.091 2.347 3.854 1.885 5.445 4.018 6.152 6.365.354 1.174.212 2.276-.035 3.236-.884 3.165-3.642 5.157-6.294 4.517-1.803-.427-3.147-1.352-3.783-2.596-.53-.996-.566-2.205-.141-3.45.318-.924.884-1.351 1.308-1.529a2.021 2.021 0 0 1 1.803.107c1.117.632 1.166 1.471 1.201 2.074l.001.024c0 .356.036.64.283.747.177.071.424.035.636-.107.425-.32.743-1.067.814-1.956.07-1.067-.566-2.667-2.617-3.52-2.05-.854-4.738.32-5.763 2.524-1.52 3.272-.318 6.224-.141 6.65-.142.107-.566.534-.92 1.209-.6 1.067-.6 2.027-.46 2.383.036.071.107.142.142.142.142.036.283-.106.495-.32.248-.249.566-.569 1.06-.853.956-.534 1.875-.391 1.98-.356 1.663 1.067 3.218 1.778 5.057 1.778.742 0 1.556-.142 2.404-.391 2.758-.818 4.738-3.058 5.657-6.33ZM69.193 39.686s1.91.569 4.279 2.773c1.379 1.28 2.757 2.774 3.854 3.948l.636-4.196c-.92-1.032-2.05-2.24-3.536-3.485-1.485-1.245-4.101-2.632-5.233-3.2v4.16ZM70.077 43.028s-.282 2.205.39 6.97c.353 2.56.99 4.979 1.308 6.046l3.323-1.565c-.248-.853-.92-2.88-1.237-5.085-.46-2.916-.319-3.556-.319-3.556-.6-.64-2.404-2.454-3.465-2.81ZM79.66 84.314c-3.678.392-6.294-2.595-6.683-5.76-.213-1.636.176-3.2 1.096-4.41 1.167-1.565 2.864-2.383 4.066-2.525 1.485-.177 2.758.25 3.57.64.566.285.99.463 1.167.356.354-.178.354-.605.213-1.138-.213-.676-.707-1.351-1.45-1.814-.884-.569-2.05-.853-3.359-.817-3.854.142-6.081 3.2-6.54 3.911-.072-.213-.284-.604-.779-.924-.778-.534-1.626-.747-1.874-.427-.176.178 0 .355.212.676.248.32.602.782.85 1.529.247.64.176 1.529.14 2.524-.035 1.138-.14 2.81.142 4.125.778 3.521 3.995 7.113 8.804 7.255a4.76 4.76 0 0 0 1.59-.178c2.193-.604 3.643-1.778 4.633-2.987.07.036.176.107.282.213l.083.068c.805.663 2.364 1.947 3.56 2.6.317-1.103.53-2.668.53-3.485-.319-.214-2.263-1.565-4.95-4.374-2.263-2.383-2.97-3.165-2.97-3.165-.425-.356-1.874-1.53-3.395-1.6-1.379-.036-1.838.284-1.874.32l.39.568c.14.178.813 1.138 2.191 2.916 1.415 1.814 3.147 3.45 3.642 3.912l.212.249a5.587 5.587 0 0 1-3.5 1.742Z"/><path fill="#fff" d="M44.656 112.941c4.278-.711 7.778-1.743 12.304-5.868 5.02-4.551 6.895-11.095 7.743-14.402 1.167-4.765 1.06-13.833 1.06-13.833V31.791s-.317-10.099.39-12.66c.707-2.56 2.227-4.409 3.146-5.37 2.051-2.097 6.33-2.808 6.33-2.808 1.237-.214 1.52-.818 1.414-1.423-.142-.924-.884-.995-.884-.995L45.68 8.463s-.778.143-.92 1.032c-.105.604.178 1.209 1.415 1.422 0 0 4.314.676 6.329 2.81.92.96 2.44 2.809 3.147 5.369.707 2.525.389 12.66.389 12.66l-.672 46.94c0 1.991.212 10.633-.248 13.762-.671 4.338-1.661 8.001-4.313 10.846-2.652 2.845-5.091 3.769-8.698 3.769-3.606 0-5.975-1.102-8.521-3.129-2.546-2.027-7.39-6.614-7.39-6.614l4.668 15.149s9.05 1.28 13.789.462Z"/><path fill="#fff" d="M17.89 110.807c.53.498 3.289-2.631 4.95-6.152 1.662-3.556 2.087-7.254 1.556-10.526-.283-1.92-1.52-4.587-2.263-6.08 1.91 1.28 4.031 2.026 5.587 2.275 4.42.747 8.415.925 11.35.25 2.51-.605 3.394-1.281 3.747-.748.39.605-1.273 2.205-6.611 3.059-5.552.889-8.946-.392-8.946-.392s.07 1.21 2.015 2.703c1.98 1.565 3.324 1.885 4.49 3.343 1.097 1.351.425 2.738.99 2.809.566.107.708-1.245 1.309-2.703.566-1.422.07-2.844.07-2.844s2.016 1.706 5.905 1.315c2.723-.284 4.35-.782 4.172-1.351-.141-.427-.707-.213-2.156-.462-1.45-.25-2.016-.854-2.016-.854s2.37-.782 5.304-2.809 4.844-4.623 4.42-5.227c-.39-.605-1.662.07-3.112.497-2.05.605-2.793.57-2.793.57s-.212-.285.707-1.388c1.273-1.529 2.44-1.635 2.404-2.24-.035-.604-1.944-1.28-6.859.925-1.768.782-3.642 2.027-3.642 2.027s.743-2.312 1.026-3.912c.282-1.565.884-4.48.318-4.694-.566-.213-.39.32-1.52 1.636-.814.924-1.026 1.351-1.415 1.209-.53-.214-.389-1.067-.672-1.956-.282-.853-.99-2.027-1.272-1.85-.637.357-.99 5.05-2.405 6.58-.46.498-1.06.818-1.697 1.066-.954.392-2.015.534-3.04.534a9.698 9.698 0 0 1-3.5-.64c-1.168-.463-3.36-1.245-4.774-3.52 0 0-.177-.32-.212-.32V80.9c-1.167-.143-2.37-.463-3.819-1.138.39 1.173.99 2.667 1.45 3.77 1.591 3.875 3.783 10.383 1.697 15.504-2.51 6.152-8.344 7.325-8.98 6.009-.53-1.066 4.242-1.102 6.788-6.223 2.05-4.16.495-9.388.495-9.388s0 4.48-3.217 7.54c-3.642 3.448-6.011 1.848-6.506 2.31-.53.57.353.996 1.237 1.423.566.249 1.556.498 1.556.498s-1.025.96-2.51 1.707c-1.38.711-2.157.995-2.228 1.493-.035.391 1.91 2.312 3.748 3.13 1.839.818 4.101 1.031 4.101 1.031s.177-.036-.424 1.031c-.636 1.103-1.308 1.565-1.025 1.992.46.64.92.533 3.57-1.138 2.653-1.672 3.395-2.739 3.395-2.739s-.07.214-.354 1.281c-.282 1.031-.813 1.387-.388 1.813ZM20.967 52.772c-.495.676-1.344 2.24-1.556 3.698.848 2.49 1.874 3.52 2.581 3.805.601-2.276 1.273-4.551 2.334-6.614-.177-.178-1.415-1.245-3.36-.889ZM16.194 69.628c.14.427 2.687 2.133 3.677 2.24 0 0-.106-1.671.247-3.094 0 0-2.086-.96-3.359-3.2-.353 1.173-.566 3.165-.566 4.054Z"/><path fill="#fff" d="M10.112 50.496c-.212.427-.424.925-.672 1.636-1.414 3.947-1.874 5.832-1.874 9.992-.035 4.552 1.38 8.748 3.996 11.771 2.475 2.88 5.869 4.552 9.546 4.73 5.286.248 9.764-3.036 11.474-4.29l.017-.013c2.617-1.92 7.425-7.006 7.46-7.041l.071-.107.07.107c.036.035 1.627 2.703 3.254 3.45 1.202.568 2.758.39 3.43.142.247-.107.317-.143.317-.178 0-.036-.176-.178-.353-.32l-.025-.022c-.752-.648-2.276-1.961-2.52-4.352-.248-2.454 4.666-4.73 8.202-5.406l.106-3.449c-.46.036-2.616.213-3.076.356-6.286 1.776-10.28 5.61-14.165 9.34l-.013.012c-4.137 3.983-8.061 7.752-14.143 7.752h-.141c-2.299-.035-4.597-1.138-6.435-3.164-2.37-2.596-3.713-6.224-3.465-9.495.283-3.805 1.626-6.935 3.96-9.033 1.838-1.636 4.207-2.596 6.54-2.596h.142c1.803.036 3.642.747 5.056 1.92 1.132.925 2.475 2.561 2.617 5.157.106 2.027-.566 3.912-1.768 5.05-.354.355-2.298 1.991-5.48 1.28-1.415-.32-2.582-1.53-3.218-2.525-.46-.711-.778-1.565-1.06-2.418-.071-.213-.319-.427-.602-.391-.353.035-.566.533-.636 1.28-.177 2.276 1.343 5.974 5.268 7.04 6.4 1.743 9.652-3.022 10.36-5.013.777-2.17.813-3.414.813-3.414 0-.071.07-.285.212-.32.177-.036.318.142.389.284.318.498 1.98 1.494 3.394 1.103 1.536-.386 2.21-1.708 2.873-3.007l.026-.051.027-.054c.592-1.19 1.159-2.332 2.378-2.507 1.45-.249 1.909-.035 2.192.107l.01.004c.17.068.243.098.52-.11.212-.143.212-.427.142-.605-.248-.783-1.733-1.92-3.713-1.85-1.92.036-2.634.66-3.434 1.36l-.03.027c-.496.427-.99.89-1.84 1.245-2.156.925-3.217.605-3.252.605h-.036l-.035-.036c-.035-.071-3.571-7.575-11.632-7.575h-.071c-4.327.036-6.794 1.871-7.64 2.5l-.033.025c-.283.214-.353.25-.424.214 0-.036-.07-.071-.035-.142.07-.356-.495-2.49-.884-3.308-.46-.995-1.662-1.529-2.05-1.564.282.32.742 1.493.636 3.022-.071 1.316-.319 1.885-.743 2.845ZM28.533 9.637c-3.571-1.423-7.319-1.103-7.354-1.103-6.541.57-13.26 5.477-13.613 15.15-.282 9.458 4.844 14.828 9.759 16.677 6.046 2.276 9.476.96 9.617.89a.397.397 0 0 1 .389.106.325.325 0 0 1 .035.391l-.035.036c-.53.569-1.839 1.956-2.581 2.987.566.071 1.308.32 1.803.533l.101.047c.705.322 1.01.46 1.313.665 1.803-2.739 4.279-5.192 7.32-7.255 2.368-1.636 6.222-3.165 10.076-4.054l.424-.107-.318.25c-1.132.889-1.945 1.849-2.687 3.164-.955 1.636-1.697 3.983-1.45 4.659.036.07.07.07.07.07.355.143.355.143.496-.07.07-.142.212-.32.46-.605.318-.32.6-.498.848-.498h.035c.213 0 .39.107.495.214l.036.035c.172.14.143.345.076.817l-.005.037c-.142.924-.39 2.631.46 3.983 1.13 1.849 2.156 3.058 2.722 3.165.106 0 .141 0 .176-.036.071-.036.248-.284.036-1.316-.212-1.138-.743-4.943-.142-7.645.708-3.307 2.829-6.543 5.48-6.543h.248v-3.059c-.53 0-3.217-.213-4.773-1.885-.813-.889-1.202-2.026-1.167-3.413.106-2.952 1.45-4.73 2.581-5.939.177-.178.743-.782.566-1.138-.141-.284-.389-.427-.742-.462h-.107c-1.308 0-3.535 1.636-4.242 2.702-.849 1.28-1.344 2.845-1.45 3.165a.478.478 0 0 1-.212.25c-.283.142-.955.035-1.45-.534-.389-.427-.389-1.28-.389-1.458v-.249s-.07-.036-.141-.036c-.106 0-.318.072-.53.392-.46.746-.071 4.41 1.343 6.4.707.96 1.237 1.707 1.662 2.276l.106.143-.142.035c-1.06.178-2.086.462-3.04.783-1.627.604-3.324 1.315-4.985 1.99h-.036c-1.944.819-3.96 1.637-5.834 2.241-5.48 1.743-9.864 1.6-12.658-.39-2.757-1.992-6.046-5.69-5.94-12.056.071-3.272 1.486-6.685 3.678-8.961 1.909-1.92 4.313-2.952 6.93-2.952h.282c6.93.178 9.3 4.588 9.229 8.321-.071 3.556-2.016 5.868-5.269 6.152-2.121.178-3.783-1.244-4.278-2.738-.318-.96-.353-1.884-.389-2.631-.035-.747-.035-1.316-.318-1.53-.106-.106-.212-.142-.354-.106-.282.071-.636.462-.813.96a7.706 7.706 0 0 0 .142 6.01c.954 2.027 3.606 3.876 6.859 3.485 3.359-.427 5.904-2.312 7.177-5.405.814-2.027.955-3.236.849-4.481-.035-.356-.035-.747-.177-1.245a.38.38 0 0 1 .036-.284c.07-.071.141-.143.247-.143.106 0 2.334-.426 3.712-2.418 2.475-3.627 1.556-5.618 1.203-6.152-.283-.462-.637-.604-.707-.569-.071.036-.177.463-.248.712-.248.995-.636 2.489-2.51 3.058-1.662.533-2.794-.32-4.279-1.351h-.035c-.99-.712-2.121-1.494-3.677-2.134Z"/></svg>