<svg xmlns="http://www.w3.org/2000/svg" width="200" height="200"><path fill="#000" fill-rule="evenodd" stroke="#000" d="M9 97.74c0-1.954.354-3.765 1.061-5.432a13.369 13.369 0 0 1 2.931-4.346 13.872 13.872 0 0 1 4.371-2.906c1.668-.707 3.462-1.061 5.382-1.061 1.92 0 3.714.362 5.382 1.086 1.668.725 3.116 1.702 4.346 2.931 1.23 1.23 2.206 2.679 2.93 4.346.725 1.668 1.087 3.462 1.087 5.382 0 1.92-.362 3.714-1.086 5.382-.725 1.667-1.702 3.116-2.931 4.346-1.23 1.23-2.678 2.206-4.346 2.93-1.668.725-3.462 1.087-5.382 1.087-1.449 0-2.906-.295-4.371-.884-1.466-.59-2.636-1.289-3.512-2.097v11.875H9V97.74zm5.862 0c0 1.078.21 2.097.632 3.057.42.96.985 1.794 1.692 2.502a8.099 8.099 0 0 0 2.502 1.693c.96.42 1.979.631 3.057.631 1.078 0 2.097-.21 3.057-.631a8.098 8.098 0 0 0 2.502-1.693 8.098 8.098 0 0 0 1.693-2.502c.42-.96.631-1.979.631-3.057 0-1.078-.21-2.097-.631-3.057a8.098 8.098 0 0 0-1.693-2.502 8.098 8.098 0 0 0-2.502-1.693 7.528 7.528 0 0 0-3.057-.631c-1.078 0-2.097.21-3.057.631a8.098 8.098 0 0 0-2.502 1.693 8.098 8.098 0 0 0-1.692 2.502 7.528 7.528 0 0 0-.632 3.057zM42.554 75h5.963v35.373h-5.963V75zM53.57 97.69c0-1.92.363-3.715 1.087-5.382a13.706 13.706 0 0 1 2.956-4.346 14.233 14.233 0 0 1 4.371-2.931c1.668-.724 3.462-1.087 5.382-1.087 1.92 0 3.714.363 5.382 1.087 1.668.724 3.116 1.701 4.346 2.93 1.23 1.23 2.206 2.68 2.93 4.347.725 1.667 1.087 3.461 1.087 5.381v12.684H75.25v-1.415c-2.29 1.651-4.918 2.477-7.883 2.477-2.089 0-3.984-.354-5.685-1.062-1.701-.707-3.15-1.684-4.346-2.93a13.264 13.264 0 0 1-2.78-4.372c-.656-1.667-.985-3.461-.985-5.382zm5.913 0c0 1.078.21 2.097.632 3.057.42.96.985 1.794 1.692 2.501a8.098 8.098 0 0 0 2.502 1.693c.96.421 1.979.632 3.057.632a8.093 8.093 0 0 0 3.057-.581 7.423 7.423 0 0 0 2.502-1.643 8.098 8.098 0 0 0 1.693-2.501c.42-.96.631-2.013.631-3.159 0-1.078-.21-2.097-.631-3.057a8.098 8.098 0 0 0-1.693-2.501 8.098 8.098 0 0 0-2.502-1.693 7.528 7.528 0 0 0-3.057-.632c-1.078 0-2.097.21-3.057.632a8.098 8.098 0 0 0-2.502 1.693 8.098 8.098 0 0 0-1.692 2.501 7.528 7.528 0 0 0-.632 3.057zM103.8 85.106h5.862v15.059c0 1.28-.169 2.518-.506 3.714-.337 1.196-.859 2.3-1.566 3.31a10.634 10.634 0 0 1-2.653 2.628c-1.062.74-2.316 1.28-3.765 1.617v8.944H95.26v-8.995a12.467 12.467 0 0 1-3.487-1.718 13.013 13.013 0 0 1-2.704-2.552 11.241 11.241 0 0 1-1.768-3.209 11.034 11.034 0 0 1-.632-3.74V85.108h5.963v15.059a5.539 5.539 0 0 0 1.617 3.942 5.9 5.9 0 0 0 1.769 1.212 5.233 5.233 0 0 0 2.172.455c.742 0 1.458-.143 2.148-.43a5.469 5.469 0 0 0 1.794-1.187 5.9 5.9 0 0 0 1.213-1.769 5.233 5.233 0 0 0 .455-2.173v-15.11zm16.575 12.987a7.216 7.216 0 0 0 .707 2.93 8.099 8.099 0 0 0 1.718 2.376 7.909 7.909 0 0 0 2.476 1.592 7.771 7.771 0 0 0 2.982.58c1.752 0 3.25-.429 4.497-1.288 1.247-.859 2.156-2.013 2.73-3.461h6.417c-.573 1.92-1.33 3.554-2.274 4.901-.943 1.348-2.021 2.443-3.234 3.285a12.883 12.883 0 0 1-3.891 1.844 15.643 15.643 0 0 1-4.245.582c-1.92 0-3.714-.363-5.382-1.087a14.233 14.233 0 0 1-4.371-2.93 13.706 13.706 0 0 1-2.956-4.347c-.725-1.667-1.087-3.461-1.087-5.382 0-1.92.362-3.714 1.087-5.381a13.706 13.706 0 0 1 2.956-4.346 14.233 14.233 0 0 1 4.371-2.931c1.668-.724 3.462-1.087 5.382-1.087 2.122 0 4.026.388 5.71 1.163 1.685.775 3.116 1.81 4.295 3.107 1.18 1.298 2.098 2.805 2.755 4.523a15.683 15.683 0 0 1 1.035 5.357h-21.678zm15.059-3.942c-.506-1.415-1.398-2.62-2.679-3.613-1.28-.994-2.779-1.49-4.497-1.49s-3.217.496-4.498 1.49c-1.28.994-2.173 2.198-2.678 3.613h14.352zm26.732-3.992a9.36 9.36 0 0 0-3.26.606 9.27 9.27 0 0 0-2.956 1.77c-.876.774-1.592 1.726-2.148 2.854-.555 1.129-.833 2.4-.833 3.815v11.168h-5.862V85.107h5.862v3.335c.673-.842 1.44-1.55 2.299-2.123a13.963 13.963 0 0 1 5.331-2.148 14.05 14.05 0 0 1 2.375-.227l-.808 6.216zm14.958 12.785-4.599 7.428h-6.519l7.884-12.633-7.884-12.633h7.176l4.65 7.428 4.648-7.428H189l-7.934 12.633L189 110.373h-7.176l-4.7-7.428z"/></svg>