<svg width="152" height="152" xmlns="http://www.w3.org/2000/svg"><g stroke="null"><path fill="#2BBC8A" d="M0 0h152v152H0z"/><path fill="#fff" d="M18.649 44.738c2.5 0 5.81-.11 9.93-.33 3.846-.218 6.703-.328 8.571-.328 7.444 0 13.117 1.727 17.018 5.18 3.928 3.453 5.892 8.92 5.892 16.401 0 4.769-.976 8.852-2.926 12.25-1.923 3.399-4.766 5.988-8.53 7.77-3.735 1.781-8.281 2.672-13.638 2.672-2.857 0-5.247-.028-7.17-.083v19.033H14.693V44.738h3.956zm15.987 33.708c3.681 0 6.662-.973 8.942-2.919 2.307-1.945 3.461-5.289 3.461-10.03 0-3.973-1.071-6.988-3.214-9.044-2.143-2.083-5.247-3.042-9.312-2.877a87.974 87.974 0 00-3.915.205c-.989.055-1.923.178-2.802.37v23.966c1.786.22 4.066.329 6.84.329zM90.963 44.738l8.365 32.886 3.173 13.812 2.39-13.812 7.54-32.886h17.883l7.5 62.565h-12.857l-3.09-33.543-1.113-19.157-4.614 19.157-8.983 34.16H96.773l-9.93-34.16-4.656-19.157-1.484 19.157-2.678 33.543-12.155.041 6.675-62.606h18.418z"/></g></svg>