<svg xmlns="http://www.w3.org/2000/svg" width="200" height="200" data-name="Layer 1"><path fill="#e00" d="M131 113c12.5 0 30.6-2.6 30.6-17.5a19.53 19.53 0 0 0-.3-3.4l-7.4-32.4c-1.7-7.1-3.2-10.4-15.7-16.6-9.7-5-30.8-13.1-37.1-13.1-5.9 0-7.6 7.5-14.5 7.5-6.7 0-11.6-5.6-17.9-5.6-6 0-9.9 4.1-12.9 12.5 0 0-8.4 23.7-9.5 27.2a6.15 6.15 0 0 0-.2 1.9C46 82.7 82.3 112.9 131 113m32.5-11.4c1.7 8.2 1.7 9.1 1.7 10.1 0 14-15.7 21.8-36.4 21.8-46.8 0-87.7-27.4-87.7-45.5a18.35 18.35 0 0 1 1.5-7.3c-16.8.8-38.6 3.8-38.6 23C4 135.2 78.6 174 137.6 174c45.3 0 56.7-20.5 56.7-36.7 0-12.7-11-27.1-30.8-35.7"/><path d="M163.5 101.6c1.7 8.2 1.7 9.1 1.7 10.1 0 14-15.7 21.8-36.4 21.8-46.8 0-87.7-27.4-87.7-45.5a18.35 18.35 0 0 1 1.5-7.3l3.7-9.1a6.15 6.15 0 0 0-.2 1.9c0 9.2 36.3 39.4 84.9 39.4 12.5 0 30.6-2.6 30.6-17.5a19.53 19.53 0 0 0-.3-3.4l2.2 9.6z"/></svg>