<svg width="152" height="152" xmlns="http://www.w3.org/2000/svg"><g stroke="null" fill-rule="evenodd"><path d="M43.035 31.572c-12.865.944-22.947 11.686-22.946 24.449 0 3.258.288 4.938 1.442 8.396.357 1.073.224 1.445-.73 2.03-2.682 1.643-5.664 5.015-7.138 8.071-7.418 15.38 4.53 32.415 21.577 30.76 2.017-.195 1.923-.25 2.93 1.685 5.313 10.202 15.791 14.888 27.024 12.087 5.72-1.426 12.058-6.615 14.546-11.908.437-.929.692-.961 2.578-.33 8.748 2.926 17.916.118 23.176-7.1 1.358-1.864 1.426-1.9 3.005-1.613 11.052 2.015 23.89-4.892 28.798-15.494 10.369-22.397-11.137-45.629-34.679-37.463-1.571.545-1.695.496-2.756-1.08-7.262-10.793-23.958-12.978-33.459-4.38-1.555 1.408-1.448 1.424-3.322-.514-5.257-5.441-12.422-8.156-20.046-7.596" fill="#04a3e3"/><path d="M0 75.5V151h151V0H0v75.5m48.547-43.766c5.166.606 10.644 3.408 14.534 7.434 1.874 1.938 1.767 1.922 3.322.514 9.5-8.598 26.197-6.413 33.459 4.38 1.061 1.576 1.185 1.625 2.756 1.08 20.935-7.262 41.787 10.944 36.608 31.962-3.41 13.84-17.43 23.42-30.727 20.995-1.579-.287-1.647-.251-3.005 1.613-5.26 7.218-14.428 10.026-23.176 7.1-1.886-.631-2.141-.599-2.578.33-2.488 5.293-8.826 10.482-14.546 11.908-11.233 2.801-21.71-1.885-27.024-12.087-1.007-1.934-.913-1.88-2.93-1.684-17.047 1.654-28.995-15.38-21.577-30.76 1.474-3.057 4.456-6.429 7.138-8.072.954-.585 1.087-.957.73-2.03-1.154-3.458-1.442-5.138-1.442-8.396-.001-14.958 13.05-26.097 28.457-24.287" fill="#fbfbfb"/></g></svg>