<svg xmlns="http://www.w3.org/2000/svg" data-name="Layer 1" viewBox="0 0 256 256"><path fill="#fff" d="m67.59 30.317 94.767-21.97 38.938 3.881 7.018 9.082s16.1 82.768 16.512 83.8-6.192 106.092-6.192 106.092L203.25 222.57 87.652 248.48l-30.015-9.207-11.145-9.907 9.081-53.253s0-48.092-.412-49.95-18.164-42.519-18.164-42.519L32.043 58.05l26.42-21.879z"/><path d="M149.394 163.617a147.784 147.784 0 0 0-37.55-20.276 151.914 151.914 0 0 1-28.752-15.396q-32.185-22.422-32.185-55.627a57.022 57.022 0 0 1 12.07-36.959 54.66 54.66 0 0 1 4.612-5.042L21.725 41.045A24.783 24.783 0 0 0 2.773 70.527l.017.075 37.978 164.091a24.783 24.783 0 0 0 29.664 18.292l18.829-4.345-1.61-.16a181.096 181.096 0 0 1-36.369-15.664l19.633-43.88a87.437 87.437 0 0 0 55.788 19.633c21.457 0 32.185-7.67 32.185-22.905a28.216 28.216 0 0 0-9.494-22.047zm103.743 22.047L215.16 21.573a24.783 24.783 0 0 0-29.718-18.56l-27.626 6.383q4.775.751 9.441 1.77a150.895 150.895 0 0 1 35.726 12.82L186.89 66.902q-18.023-15.45-50.262-15.45-28.86 0-28.913 22.96a20.706 20.706 0 0 0 9.494 16.092 197.51 197.51 0 0 0 40.554 19.633 126.81 126.81 0 0 1 34.277 19.043 68.018 68.018 0 0 1 10.729 10.729 66.248 66.248 0 0 1 13.625 42.001 63.566 63.566 0 0 1-13.143 40.661l31.274-7.134a24.729 24.729 0 0 0 18.658-29.58l-.045-.192z" style="fill:#d33a2c"/></svg>