<svg xmlns="http://www.w3.org/2000/svg" xml:space="preserve" width="200" height="200"><g fill="var(--tonic-primary)"><path d="M91.2 56.5c7.4 1.6 15.9 3.3 23.3 3.3 8.7 0 15.5-3.9 15.5-8.8 0-6.6-10.2-7.1-13.4-7.1-9.4 0-17.5 2.8-26.1 9.2-5.9-1.4-12.2-3-18.2-4.6C56.9 44.2 40.9 40 28.6 40 14.7 40 0 46.5 0 58.5c0 7.7 8.1 16 21.3 16 11.3 0 20.6-3.8 27.6-11.4l.8-.8-2.6-1.9-.6.7c-6.3 6.8-14.8 10.2-25.2 10.2-8.7 0-18.1-4.9-18.1-12.8 0-7.6 8.7-15.3 25.4-15.3 12 0 28 4.3 43.4 8.4 5.1 1.4 10.3 2.7 15.3 4-18.1 15-41.3 47.5-77.1 101.5l-.5.8 2.6 1.9.6-.9c36.9-55.6 60.3-88.5 78.3-102.4zm23.3.1c-6.3 0-13.6-1.3-19.8-2.6 7.1-4.8 13.9-6.9 21.9-6.9 2.4 0 10.2.3 10.2 3.9 0 2.7-4.7 5.6-12.3 5.6zM163.1 104.5c1.5 0 3-1.6 3-3.2 0-1.5-1.5-3-3-3-1.6 0-3.2 1.5-3.2 3 .1 1.7 1.6 3.2 3.2 3.2zM195.8 132.6l-.6.7c-8.5 9.9-23.5 20.5-32.5 20.5-1.9 0-5.1-.8-5.1-5.8 0-4.1 1.6-8.5 4.1-12.5l.1-.1.7-.8-.1-.1c6.8-10.3 19-18.9 25.1-18.9 1.9 0 1.9.6 1.9.9 0 4.9-7.3 12.7-15.1 16.1l-.9.4 1.2 3.1 1-.4c8.1-3.7 17-12.4 17-19.1 0-2-1.8-4.1-5.1-4.1-7.6 0-20.5 9.4-27.7 20.5l-.4.5c-12.7 14.9-22.2 20.2-26.4 20.2-.5 0-1.4 0-1.4-1.9 0-4.5 5.8-13.8 18.9-29.8l4.3-5.2-2.6-1.9-4.1 5.1c-7.3 8.5-10.3 12-11.1 13l-.3.4c-14.1 16.5-23.7 20.9-26.8 20.9-1 0-1.3-.2-1.3-1.5 0-4 5.5-10.7 10.8-17.2 5.7-7 11.1-13.6 11.1-18.2 0-2.2-1.5-4.5-4.2-4.5-5 0-12.8 6.4-19.6 13 4.3-6.8 4.3-8.7 4.3-9.5 0-2.5-1.4-4-3.6-4-3.9 0-11.1 8-21.5 20.3l-.6.7c-10 11.7-18.4 15.6-23.6 15.6 9.7-8.9 19.5-23.3 19.5-32.1 0-4.1-2.7-5.6-5.2-5.6-6.7 0-16.8 8.9-21.6 18.5l-1.4-1.3-.7.7c-6.8 6.8-11.6 15.7-11.6 21.6 0 3.9 2.3 6.5 5.8 6.5 3.1 0 7.1-1.9 11.8-5.6 7.3 2.2 18.5-3.8 28.7-15.6l.8-.9.5-.6.2-.3c7.1-8.3 15.9-18.7 18.7-18.7h.4c0 .1.1.3.1.8 0 3.9-12.8 20.8-19.7 29.8-2.4 3.2-4.5 5.9-5.7 7.6l-.6.8 2.5 1.9.6-.8c17.9-23.3 34.9-39.7 41.5-39.7.7 0 1 .1 1 1.3 0 3.5-5.2 9.9-10.2 16-5.8 7-11.7 14.3-11.7 19.4 0 2.3 1.4 4.7 4.5 4.7 4 0 11.5-4.1 20.7-12.9-1.4 2.9-2.1 5.2-2.1 7.1 0 2.5 1.6 5.1 4.6 5.1 4.2 0 12-3.9 22.2-14.2-.5 1.9-.8 3.7-.8 5.5 0 6.2 4.2 9 8.3 9 9 0 24.7-9.7 35-21.7l.7-.8-2.7-1.9zM75.9 114.5c1.2 0 2 .4 2 2.4 0 8.2-10.4 22.9-19.9 31.1-2.2-1.3-3.3-4.1-3.3-7.9 0-11.6 14.2-25.6 21.2-25.6zM51.5 140c0 5.6 1.9 8.6 3.8 10.1-3.5 2.6-6.6 4-8.8 4-1.3 0-2.6-.4-2.6-3.3 0-4.6 3.5-11.4 8.8-17.2-.8 2.2-1.2 4.4-1.2 6.4z" class="st0"/></g></svg>