<svg xmlns="http://www.w3.org/2000/svg" width="349.66" height="349.66" fill="none"><defs><linearGradient id="a" x1=".647" x2="0" y1="0" y2="-.176"><stop offset="0" stop-color="#A662FF"/><stop offset="1" stop-color="#57EDFD"/></linearGradient><linearGradient id="b" x1=".561" x2="1.037" y1=".829" y2=".025"><stop offset="0" stop-color="#FC27F6"/><stop offset="1" stop-color="#FFA694"/></linearGradient><linearGradient id="c" x1=".32" x2=".998" y1=".001" y2=".001"><stop offset="0" stop-color="#7600FF"/><stop offset="1" stop-color="#FB2FFB"/></linearGradient><linearGradient id="d" x1=".696" x2=".573" y1=".02" y2=".085"><stop offset="0" stop-color="#fff"/><stop offset="1" stop-color="#fff" stop-opacity="0"/></linearGradient><linearGradient id="e" x1=".274" x2=".348" y1=".065" y2=".106"><stop offset="0" stop-color="#fff"/><stop offset="1" stop-color="#fff" stop-opacity="0"/></linearGradient><linearGradient id="f" x1=".916" x2=".817" y1=".519" y2=".471"><stop offset="0" stop-color="#fff"/><stop offset="1" stop-color="#fff" stop-opacity="0"/></linearGradient></defs><path fill="url(#a)" d="M258.65 289.553H106.73c-16.654 0-35.17-13.505-41.345-30.159L2.01 90.074C-4.165 73.42 4.324 59.915 20.985 59.915h151.91c16.653 0 35.168 13.505 41.344 30.159l63.374 169.32c6.183 16.654-2.307 30.159-18.967 30.159h.004z"/><path fill="url(#b)" d="M329.7 104.722H173.84c-15.565 0-32.87 12.619-38.643 28.183l-47.654 128.46c-5.775 15.564 2.16 28.183 17.73 28.183h155.86c15.565 0 32.869-12.619 38.643-28.183l47.655-128.46c5.774-15.564-2.167-28.183-17.731-28.183z"/><path fill="url(#c)" fill-rule="evenodd" d="M105.78 289.543h153.1a27.995 27.995 0 0 0 2.72-.185c.054.005.109.008.166.008 8.922 0 18.31-4.78 22.625-8.285 6.276-5.099 9.997-8.74 14.022-16.253-7.212 12.612-14.68 11.974-20.076-2.868a8.237 8.237 0 0 0-.778-1.626 38.248 38.248 0 0 0-.336-.944l-56.12-151.28a38.757 38.757 0 0 0-1.445-3.39h-45.82c-15.563 0-32.867 12.619-38.642 28.183l-47.654 128.46a32.942 32.942 0 0 0-.621 1.831c-5.443 13.513-11.951 13.677-19.11 1.287 4.155 7.676 7.997 11.395 14.475 16.605 4.454 3.581 14.147 8.465 23.359 8.465.046 0 .092-.002.136-.005l-.001-.003z" clip-rule="evenodd"/><path fill="url(#d)" fill-rule="evenodd" d="M106.74 289.553h151.92c.894 0 1.765-.039 2.61-.115.114.028.236.042.366.042 8.923 0 18.31-4.78 22.626-8.286 6.275-5.099 9.996-8.739 14.02-16.252-6.852 11.984-13.936 12.005-19.255-.76a34.11 34.11 0 0 0-1.4-4.788l-63.374-169.32c-6.176-16.654-24.691-30.159-41.344-30.159H20.999c-16.66 0-25.15 13.505-18.974 30.159l63.374 169.32c6.176 16.654 24.69 30.159 41.345 30.159h-.004z" clip-rule="evenodd" opacity=".4"/><path fill="url(#e)" fill-rule="evenodd" d="M174.03 104.913h155.86c15.564 0 23.506 12.619 17.73 28.183l-47.653 128.46c-5.775 15.564-23.08 28.183-38.643 28.183h-155.36c-.044.004-.09.006-.136.006-.182 0-.364-.002-.547-.006-2.08-.013-4.022-.252-5.812-.693-7.032-1.478-13.57-5.008-17-7.767-6.478-5.209-10.32-8.929-14.475-16.605 7.159 12.39 13.667 12.226 19.11-1.287.186-.605.393-1.216.62-1.831l47.655-128.46c5.775-15.564 23.079-28.183 38.643-28.183h.008z" clip-rule="evenodd" opacity=".15"/><path fill="url(#f)" fill-opacity=".2" d="M330.05 104.913H174.19c-15.564 0-32.868 12.619-38.642 28.183l-47.655 128.46c-5.774 15.564 2.16 28.183 17.73 28.183h155.86c15.565 0 32.869-12.619 38.643-28.183l47.655-128.46c5.774-15.564-2.167-28.183-17.731-28.183z"/></svg>