<svg xmlns="http://www.w3.org/2000/svg" width="180" height="180"><path fill="#007acc" d="m121.89 58.141-15.128-7.284a4.574 4.574 0 0 0-5.23.89L72.537 78.2l-12.63-9.584a3.042 3.042 0 0 0-3.908.173l-4.051 3.678a3.067 3.067 0 0 0-.015 4.526l10.963 10-10.963 10a3.067 3.067 0 0 0 .015 4.526l4.051 3.692c1.107.992 2.745 1.064 3.908.173l12.63-9.584 28.993 26.451a4.552 4.552 0 0 0 5.216.89l15.144-7.284a4.576 4.576 0 0 0 2.6-4.138V62.28a4.552 4.552 0 0 0-2.6-4.138v-.001zm-15.761 45.56-22.012-16.71 22.012-16.709v33.419zM140.34 50l-7.81 7.81L161.73 87l-29.2 29.188 7.81 7.81 33.095-33.094v-7.81L140.34 50zm-93.436 7.81L17.704 87l29.2 29.188-7.81 7.81L6 90.904v-7.81L39.094 50l7.81 7.81z"/></svg>