<svg xmlns="http://www.w3.org/2000/svg" xml:space="preserve" viewBox="0 0 151 151"><path fill="#FFF" d="M74.1 69.6c0-12 1.2-22.8 1.2-22.8l-7.5-7s11.4-3.8 18.7-.2c2.8 7.1 14.6 6.5 14.6 6.5s8.7 4.6 11.9 13.5c-4.3-1.4-17.1-4.9-17.1-4.9s-12.7 3.9-21.8 14.9z"/><ellipse cx="98.8" cy="35.2" fill="#FFF" rx="10.6" ry="7.3"/><path fill="#FFF" d="M76.3 77.3c8.5 6.8 13.3 12.2 18.7 19.2.2 3.9-.8 8.6-2.2 13.7 9-2.8 15.1-10.1 15.1-10.1s-3-11.6 8-14.5c2.5-6.7 1.2-16.4-.4-19.7-3.8 3.1-5.9 6.5-10.6 11.4H76.3z"/><circle cx="119.3" cy="96.7" r="9" fill="#FFF"/><path fill="#FFF" d="M69.1 78.2c-1.1 5.4-1.5 14.1 1.4 22.2 3.1 6.2 12.7 12 14.4 11.9 1.7-.1-9.9 2.8-17.3-.6-1.6-3.5-5.7-8.3-13.2-7-4-3.4-8.1-8.2-10.1-14.8 3.7 1.2 6.7 3.2 12.3 3.5 4.9-4.5 12.5-15.2 12.5-15.2zM57.2 107.8c4.5 0 8.2 3.9 8.2 8.8s-3.7 8.8-8.2 8.8-8.2-3.9-8.2-8.8c0-4.8 3.6-8.8 8.2-8.8zM67.8 71.6 57.1 55c.8-7 6.4-14.2 6.4-14.2C52.8 44.6 48 53 48 53c.8 8.8-6 10.7-6 10.7-2.7 8.7-.6 17.6-.6 17.6 3-7.8 6.3-10.2 6.3-10.2l20.1.5z"/><ellipse cx="37.2" cy="54.3" fill="#FFF" rx="8.3" ry="7.6"/><path fill="#799D42" d="M73.9 67.3c0-12 1.2-22.8 1.2-22.8l-7.5-7s11.4-3.8 18.7-.2c2.8 7.1 14.6 6.5 14.6 6.5s8.7 4.6 11.9 13.5c-4.3-1.4-17.1-4.9-17.1-4.9S83 56.2 73.9 67.3z"/><ellipse cx="98.6" cy="32.9" fill="#799D42" rx="10.6" ry="7.3"/><path fill="#B33F1B" d="M76 75c8.5 6.8 13.4 12.2 18.7 19.2.2 3.9-.8 8.6-2.2 13.7 9-2.8 15.1-10.1 15.1-10.1s-3-11.6 8-14.5c2.5-6.7 1.2-16.4-.4-19.7-3.8 3.1-5.9 6.5-10.6 11.4-7.9-.1-28.6 0-28.6 0z"/><circle cx="119.1" cy="94.4" r="9" fill="#B33F1B"/><path fill="#F16431" d="M68.8 75.9c-1.1 5.4-1.5 14.1 1.4 22.2 3.1 6.2 12.7 12 14.4 11.9s-9.9 2.8-17.3-.6c-1.6-3.5-5.7-8.3-13.2-7-4-3.4-8.1-8.2-10.1-14.8 3.7 1.2 6.7 3.2 12.3 3.5 5-4.5 12.5-15.2 12.5-15.2z"/><ellipse cx="56.9" cy="114.3" fill="#F16431" rx="8.2" ry="8.8"/><path fill="#008EC1" d="M67.6 69.3 56.9 52.6c.8-7 6.4-14.2 6.4-14.2-10.7 3.8-15.5 12.2-15.5 12.2.8 8.8-6 10.7-6 10.7-2.7 8.7-.6 17.6-.6 17.6 3-7.8 6.3-10.2 6.3-10.2l20.1.6z"/><ellipse cx="37" cy="51.9" fill="#008EC1" rx="8.3" ry="7.6"/></svg>