<svg xmlns="http://www.w3.org/2000/svg" width="195" height="195"><path fill="#2c4455" stroke="null" d="M0-.5h196.5V195H0z"/><path fill="#dbf1f7" d="m102.49 61.812 16.63-9.6a.46.46 0 0 0 0-.85l-16.63-9.61a9.19 9.19 0 0 0-10.2 0l-16.63 9.64a.46.46 0 0 0 0 .85l16.63 9.6a9.15 9.15 0 0 0 10.2 0v-.03zm-13 4.84-16.62-9.6a.47.47 0 0 0-.75.43v19.2a9.2 9.2 0 0 0 5.1 8.84l16.63 9.6a.46.46 0 0 0 .74-.43v-19.2a9.18 9.18 0 0 0-5.1-8.84z"/><path fill="#c2e6f1" d="m49.16 69.322 16.63 9.6a.47.47 0 0 0 .74-.43v-19.2a9.17 9.17 0 0 0-5.1-8.84l-16.63-9.6a.46.46 0 0 0-.74.43v19.2a9.18 9.18 0 0 0 5.1 8.84z"/><path fill="#dbf1f7" d="m47.6 36.012 16.62 9.6a9.21 9.21 0 0 0 10.21 0l16.62-9.6a.47.47 0 0 0 0-.86l-16.66-9.6a9.17 9.17 0 0 0-10.21 0l-16.59 9.6a.47.47 0 0 0 .01.86zm56.13 0 16.66 9.6a9.21 9.21 0 0 0 10.21 0l16.62-9.6a.47.47 0 0 0 0-.86l-16.63-9.6a9.17 9.17 0 0 0-10.21 0l-16.63 9.6a.47.47 0 0 0-.02.86zm29.66 14.44a9.17 9.17 0 0 0-5.1 8.84v19.2a.47.47 0 0 0 .74.43l16.63-9.6a9.18 9.18 0 0 0 5.1-8.84v-19.2a.46.46 0 0 0-.74-.43l-16.63 9.6zm-60.53 93.28 16.63-9.6a9.18 9.18 0 0 0 5.1-8.84v-19.2a.46.46 0 0 0-.74-.43l-16.63 9.6a9.2 9.2 0 0 0-5.1 8.84v19.2a.47.47 0 0 0 .74.43z"/><path fill="#61cae6" d="M128.25 124.102v19.2a.47.47 0 0 0 .74.43l16.63-9.6a9.18 9.18 0 0 0 5.1-8.84v-19.2a.46.46 0 0 0-.74-.43l-16.59 9.6a9.18 9.18 0 0 0-5.14 8.84zm-66.86-8.84-16.63-9.6a.46.46 0 0 0-.74.43v19.2a9.18 9.18 0 0 0 5.1 8.84l16.63 9.6a.47.47 0 0 0 .74-.43v-19.2a9.18 9.18 0 0 0-5.1-8.84zm32.46 22.81-16.63 9.6a9.17 9.17 0 0 0-5.1 8.83v19.2a.46.46 0 0 0 .74.43l16.63-9.6a9.16 9.16 0 0 0 5.1-8.83v-19.21a.46.46 0 0 0-.74-.42zm-32.46 9.6-16.63-9.6a.46.46 0 0 0-.74.42v19.21a9.16 9.16 0 0 0 5.1 8.83l16.63 9.6a.46.46 0 0 0 .74-.43v-19.2a9.16 9.16 0 0 0-5.1-8.83zm-28-48.61-16.62-9.6a.47.47 0 0 0-.75.42v19.21a9.16 9.16 0 0 0 5.11 8.83l16.63 9.61a.47.47 0 0 0 .74-.44v-19.19a9.18 9.18 0 0 0-5.11-8.84zm84.17 48.61-16.63-9.6a.46.46 0 0 0-.74.42v19.21a9.16 9.16 0 0 0 5.1 8.83l16.63 9.6a.46.46 0 0 0 .74-.43v-19.2a9.17 9.17 0 0 0-5.1-8.83zm32.42-9.6-16.59 9.6a9.16 9.16 0 0 0-5.1 8.83v19.2a.46.46 0 0 0 .74.43l16.63-9.6a9.16 9.16 0 0 0 5.1-8.83v-19.21a.46.46 0 0 0-.78-.42zm28.81-48.19a.47.47 0 0 0-.75-.42l-16.65 9.6a9.18 9.18 0 0 0-5.11 8.84v19.19a.47.47 0 0 0 .74.44l16.63-9.61a9.16 9.16 0 0 0 5.11-8.83l.03-19.21z"/><path fill="#dbf1f7" d="m130.56 110.392 16.62-9.6a.47.47 0 0 0 0-.86l-16.62-9.54a9.21 9.21 0 0 0-10.17 0l-16.63 9.6a.47.47 0 0 0 0 .86l16.63 9.54a9.21 9.21 0 0 0 10.21 0h-.04z"/><path fill="#c2e6f1" d="m100.93 95.122 16.63-9.6a9.2 9.2 0 0 0 5.1-8.84v-19.2a.47.47 0 0 0-.75-.43l-16.62 9.6a9.18 9.18 0 0 0-5.1 8.84v19.2a.46.46 0 0 0 .74.43zm-9.88 5.7a.47.47 0 0 0 0-.86l-16.66-9.57a9.21 9.21 0 0 0-10.21 0l-16.63 9.6a.47.47 0 0 0 0 .86l16.62 9.6a9.21 9.21 0 0 0 10.22-.06l16.66-9.57z"/><path fill="#dbf1f7" d="M62.99 84.622a.47.47 0 0 0 0-.86l-16.6-9.6a9.15 9.15 0 0 0-10.2 0l-16.63 9.6a.47.47 0 0 0 0 .86l16.63 9.6a9.19 9.19 0 0 0 10.2 0l16.6-9.6z"/><path fill="#c2e6f1" d="m117.56 115.262-16.63-9.6a.46.46 0 0 0-.74.43v19.2a9.18 9.18 0 0 0 5.1 8.84l16.63 9.6a.47.47 0 0 0 .74-.43v-19.2a9.2 9.2 0 0 0-5.1-8.84zm41.06-21.04 16.63-9.6a.47.47 0 0 0 0-.86l-16.63-9.6a9.15 9.15 0 0 0-10.2 0l-16.63 9.6a.47.47 0 0 0 0 .86l16.63 9.6a9.19 9.19 0 0 0 10.2 0z"/></svg>